<?xml version="1.0" encoding="utf-8"?>
<!-- Uploaded to: SVG Repo, www.svgrepo.com, Generator: SVG Repo Mixer Tools -->
<svg width="800px" height="800px" viewBox="0 0 1024 1024" class="icon" version="1.1" xmlns="http://www.w3.org/2000/svg">
	<path
		d="M878.3 152.9H145.7c-38.6 0-70 31.4-70 70V706c0 38.6 31.4 70 70 70h732.6c38.6 0 70-31.4 70-70V222.9c0-38.6-31.4-70-70-70z m30 531V706c0 16.5-13.5 30-30 30H145.7c-16.5 0-30-13.5-30-30V222.9c0-16.5 13.5-30 30-30h732.6c16.5 0 30 13.5 30 30v461zM678 871.1H346c-11 0-20-9-20-20s9-20 20-20h332c11 0 20 9 20 20s-9 20-20 20z"
		fill="#233D7F" />
	<path
		d="M127.1 662.7c-2.7 0-5.4-1.1-7.3-3.2-3.7-4.1-3.5-10.4 0.6-14.1l236.5-219.6L463 541.9l258.9-290.7 183.7 196.3c3.8 4 3.6 10.4-0.4 14.1-4 3.8-10.3 3.6-14.1-0.4L722.3 280.8l-259 290.9L355.7 454 133.9 660c-2 1.8-4.4 2.7-6.8 2.7z"
		fill="#233D7F" />
	<path d="M208.9 541.9a30.2 30.3 0 1 0 60.4 0 30.2 30.3 0 1 0-60.4 0Z" fill="#233D7F" />
	<path d="M633.4 329.9a30.2 30.3 0 1 0 60.4 0 30.2 30.3 0 1 0-60.4 0Z" fill="#233D7F" />
	<path d="M748.7 539.6a16.9 17 0 1 0 33.8 0 16.9 17 0 1 0-33.8 0Z" fill="#233D7F" />
</svg>