<?xml version="1.0" encoding="utf-8"?>
<!-- Generator: Adobe Illustrator 23.0.6, SVG Export Plug-In . SVG Version: 6.00 Build 0)  -->
<svg version="1.1" id="Line__x26__Text" xmlns="http://www.w3.org/2000/svg" xmlns:xlink="http://www.w3.org/1999/xlink" x="0px"
	 y="0px" viewBox="0 0 617 116" style="enable-background:new 0 0 617 116;" xml:space="preserve">
<style type="text/css">
	.st0{fill:#FEFEFE;}
</style>
<g>
	<path d="M108.7,41.7c6.3,2.4,12.2,5.4,17.7,9l-4,8.7l4.8,15.5c-3.6-2.4-7.4-4.5-10.7-6.2l0,8.5c-2.5-1.5-5.1-2.8-7.9-4v3.6l3.8,5.7
		v7.9H87V67.1c-0.9-0.1-1.8-0.2-2.8-0.3l-9.9,15.6l-9.9-15.6c-0.9,0.1-1.9,0.2-2.8,0.3v23.3H36.3v-7.9l3.8-5.7v-3.6
		c-2.8,1.2-5.4,2.6-7.9,4v-8.5c-3.3,1.7-7,3.8-10.7,6.2l4.8-15.5l-4-8.7c5.4-3.6,11.4-6.6,17.7-9v-1.9l-3.8-6v-7.6h23.8l9.2,14.3
		c1.7-0.1,3.4-0.2,5-0.2c1.7,0,3.4,0.1,5,0.2l9.2-14.3h23.8v7.6l-3.8,6V41.7z"/>
	<path class="st0" d="M40,44.5c-5.2,2-10,4.4-14.4,7.2l3.5,7.6L26,69.2c2-1.2,4.1-2.3,6.2-3.3V51.2c2.4-1.2,5.9-3,7.9-3.8V44.5z"/>
	<path class="st0" d="M74.4,63.5c13.3,0,27.4,3.4,39.5,9.4V52.8c-12.1-6.3-26.2-9.7-39.5-9.7c-13.3,0-27.4,3.5-39.5,9.7V73
		C47,66.9,61.1,63.5,74.4,63.5z"/>
	<path class="st0" d="M108.7,44.5c5.2,2,10,4.4,14.4,7.2l-3.5,7.6l3.1,9.9c-2-1.2-4.1-2.3-6.2-3.3V51.2c-2.4-1.2-5.9-3-7.9-3.8V44.5
		z"/>
	<g>
		<path d="M66.9,50.4c-0.8,0.1-1.6,0.2-2.5,0.2v-1.7l-2.7,0.4v9.6c0,0,1.2-0.2,1.2-0.2v2.5c-1.9,0.2-3.8,0.6-5.6,0.9v-2.5l1.2-0.2
			c0,0,0-9.6,0-9.6l-2.6,0.5V52c-0.8,0.2-1.6,0.4-2.4,0.6v-4.2c4.4-1.1,8.9-1.9,13.3-2.2V50.4z M51.6,52.5c-1,0.3-2.1,0.6-3.1,0.9
			v-1.1l-4.4,1.5v3.3c0,0,4.1-1.5,5.7-2l1.8,1.2v4.7L49,64.3c-1.9,0.6-3.8,1.3-5.7,2c-0.7-0.5-1.5-0.9-2.2-1.4v-1.8
			c1-0.4,2-0.8,3-1.2v1.7l0.4-0.2c1.2-0.5,4-1.4,4-1.4v-4.2c0,0-4.1,1.4-5.8,2.1l-1.6-1.1V55l2.4-3.4c1.9-0.7,3.8-1.4,5.7-2
			c0.8,0.5,1.6,1,2.3,1.6V52.5z M93.1,52.3c-0.8-0.2-1.6-0.4-2.4-0.5V50L88,49.5v9.6c0,0,1.2,0.2,1.2,0.2v2.5
			c-1.9-0.3-3.8-0.6-5.6-0.8v-2.5l1.2,0.1c0,0,0-9.6,0-9.6l-2.7-0.3v1.7c-0.8-0.1-1.6-0.1-2.5-0.2v-4.2c4.5,0.3,9,1,13.4,2V52.3z
			 M99.6,52.4v3.6c0,0,2.8,0.9,4.1,1.4v2.2c-1.2-0.5-4.1-1.4-4.1-1.4V62l4.4,1.5v-1.1c1,0.4,2,0.8,3,1.2v3.6
			c-3.8-1.6-7.7-2.9-11.7-4v-2.5l1.2,0.3c0,0,0-9.6,0-9.6c0,0-1.2-0.3-1.2-0.3v-2.5c4,1,7.9,2.4,11.7,4V56c-1-0.4-2-0.8-3-1.2v-0.9
			C104,53.9,99.6,52.4,99.6,52.4z M73.2,49c0,0-1.6,4.6-1.6,4.6l3.2,0L73.2,49z M80.5,60.8c-1.8-0.1-3.6-0.2-5.4-0.2V58l1.2,0
			c0,0-0.8-2.3-0.8-2.3l-4.8,0.1l-0.8,2.3c0,0,1.2,0,1.2,0v2.5c-1.7,0.1-3.4,0.2-5.1,0.3v-2.5l1.2-0.1c0,0,4.4-12.4,4.4-12.4
			c1.1,0,2.3,0,3.5,0l4.2,12.3c0,0,0.9,0.1,1.3,0.1V60.8z"/>
	</g>
</g>
<g>
	<g>
		<g>
			<path d="M178.8,48.6v-8.8l-4.2,7.7l-4.2-7.7v8.8l1.3,0.9v2.6h-6.7v-2.6l1.3-0.9V36.1l-1.3-0.9v-2.6h5.8l3.7,6.9l3.9-6.9h5.7v2.6
				l-1.3,0.9v12.5l1.3,0.9v2.6h-6.7v-2.6L178.8,48.6z"/>
			<path d="M194.4,52.1h-7.2v-2.6l1.4-0.9V36.2l-1.4-0.9v-2.6h7.2v2.6l-1.4,0.9v12.5l1.4,0.9V52.1z"/>
			<path d="M210.1,35.5l0.3,0.3V38H206v-0.9l-0.5-0.5h-3l-0.5,0.5v2.8L202,40h6.1l2.1,2.2l0.3,0.3v6.3l-3,3.3h-6.9l-2.7-3.1
				l-0.2-0.3v-2.7h4.4v1.5l0.6,0.7h2.9l0.6-0.7v-3.8l-0.1-0.1h-6.2l-2.2-2.6v-5.3l2.6-2.9l0.3-0.3h7L210.1,35.5z"/>
			<path d="M226,35.5l0.3,0.3V38h-4.4v-0.9l-0.5-0.5h-3l-0.5,0.5v2.8l0.1,0.1h6.1l2.1,2.2l0.3,0.3v6.3l-3,3.3h-6.9l-2.7-3.1
				l-0.2-0.3v-2.7h4.4v1.5l0.6,0.7h2.9l0.6-0.7v-3.8l-0.1-0.1h-6.2l-2.2-2.6v-5.3l2.6-2.9l0.3-0.3h7L226,35.5z"/>
			<path d="M236.5,52.1h-7.2v-2.6l1.4-0.9V36.2l-1.4-0.9v-2.6h7.2v2.6l-1.4,0.9v12.5l1.4,0.9V52.1z"/>
			<path d="M252.2,35.5l0.3,0.3V38H248v-0.9l-0.5-0.5h-3l-0.5,0.5v2.8L244,40h6.1l2.1,2.2l0.3,0.3v6.3l-3,3.3h-6.9l-2.7-3.1
				l-0.2-0.3v-2.7h4.4v1.5l0.6,0.7h2.9l0.6-0.7v-3.8l-0.1-0.1h-6.2l-2.2-2.6v-5.3l2.6-2.9l0.3-0.3h7L252.2,35.5z"/>
			<path d="M268.1,35.5l0.3,0.3V38H264v-0.9l-0.5-0.5h-3l-0.5,0.5v2.8L260,40h6.1l2.1,2.2l0.3,0.3v6.3l-3,3.3h-6.9l-2.7-3.1
				l-0.2-0.3v-2.7h4.4v1.5l0.6,0.7h2.9l0.6-0.7v-3.8l-0.1-0.1h-6.2l-2.2-2.6v-5.3l2.6-2.9l0.3-0.3h7L268.1,35.5z"/>
			<path d="M278.6,52.1h-7.2v-2.6l1.4-0.9V36.2l-1.4-0.9v-2.6h7.2v2.6l-1.4,0.9v12.5l1.4,0.9V52.1z"/>
			<path d="M295.4,35.6l0.3,0.3v6.3l-2.7,2.9l-0.3,0.3h-5.3v3.2l1.5,0.9v2.6h-7.2v-2.6l1.4-0.9V36.2l-1.4-0.9v-2.6h11.1L295.4,35.6z
				 M291.3,37.1l-0.5-0.5h-3.4v4.8h3.4l0.5-0.5V37.1z"/>
			<path d="M312,35.6l0.3,0.3v6.3l-2.7,2.9l-0.3,0.3H304v3.2l1.5,0.9v2.6h-7.2v-2.6l1.4-0.9V36.2l-1.4-0.9v-2.6h11.1L312,35.6z
				 M307.9,37.1l-0.5-0.5H304v4.8h3.4l0.5-0.5V37.1z"/>
			<path d="M321.9,52.1h-7.2v-2.6l1.4-0.9V36.2l-1.4-0.9v-2.6h7.2v2.6l-1.4,0.9v12.5l1.4,0.9V52.1z"/>
			<path d="M348,35.5l0.3,0.3V38h-4.4v-0.9l-0.5-0.5h-3l-0.5,0.5v2.8l0.1,0.1h6.1l2.1,2.2l0.3,0.3v6.3l-3,3.3h-6.9l-2.7-3.1
				l-0.2-0.3v-2.7h4.4v1.5l0.6,0.7h2.9l0.6-0.7v-3.8l-0.1-0.1h-6.2l-2.2-2.6v-5.3l2.6-2.9l0.3-0.3h7L348,35.5z"/>
			<path d="M350.4,32.6h15.7v6.2h-3.6v-2.1h-2v12l1.4,0.9v2.6h-7.1v-2.6l1.4-0.9v-12h-2v2.1h-3.6V32.6z"/>
			<path d="M381.4,49.6v2.6h-6.8v-2.6l1.3-0.8l-0.8-2.7h-4.5l-0.9,2.7l1.3,0.8v2.6h-6.5v-2.5l1.3-1l4.7-15.3l0.2-0.7h4.5l4.7,15.9
				L381.4,49.6z M374,42.4l-1.1-3.9l-1.2,3.9H374z"/>
			<path d="M379.7,32.6h15.7v6.2h-3.6v-2.1h-2v12l1.4,0.9v2.6H384v-2.6l1.4-0.9v-12h-2v2.1h-3.6V32.6z"/>
			<path d="M397.6,32.6h14.2v6.1h-4.4v-2.1h-4.1v3.7h4.7v3.7h-4.7v4.1h4.1v-1.4h4.4v5.4h-14.2v-2.6l1.4-0.9V36.2l-1.4-0.9V32.6z"/>
			<path d="M434.1,32.6h6.9v2.7l-1.6,0.9v12.7l-2.7,2.9l-0.3,0.3h-6.9l-3-3.2V36.2l-1.4-0.9v-2.6h6.6v2.5L431,36v11.6l0.5,0.5h3
				l0.5-0.5V36l-0.9-0.9V32.6z"/>
			<path d="M450.7,49.5v2.6h-6.6v-2.6l1.4-0.9V36.2l-1.4-0.9v-2.6h5.9l5.7,10.8v-7.3l-1.2-0.9v-2.6h6.4v2.6l-1.3,0.9v16h-4.1
				l-6.2-11.9v8.3L450.7,49.5z"/>
			<path d="M471.2,52.1H464v-2.6l1.4-0.9V36.2l-1.4-0.9v-2.6h7.2v2.6l-1.4,0.9v12.5l1.4,0.9V52.1z"/>
			<path d="M483.3,32.6h7.4v2.7l-2,1L484,52.1h-3.8l-4.9-15.9l-1.8-1v-2.7h7.1v2.6l-1.2,0.8l2.6,8.5l2.6-8.5l-1.3-0.8V32.6z"/>
			<path d="M492.8,32.6h14.2v6.1h-4.4v-2.1h-4.1v3.7h4.7v3.7h-4.7v4.1h4.1v-1.4h4.4v5.4h-14.2v-2.6l1.4-0.9V36.2l-1.4-0.9V32.6z"/>
			<path d="M525.7,49.6v2.5h-6.5v-2.6l0.9-0.7l-2-4.5h-2.2v4.3l1,0.9v2.5h-6.7v-2.6l1.3-0.9V36.1l-1.3-0.9v-2.6h11l3,3.2v5.4l-2,2.1
				l2.3,5.2L525.7,49.6z M519.8,37.1l-0.6-0.5h-3.3v3.8h3.2l0.6-0.7V37.1z"/>
			<path d="M540.8,35.5l0.3,0.3V38h-4.4v-0.9l-0.5-0.5h-3l-0.5,0.5v2.8l0.1,0.1h6.1l2.1,2.2l0.3,0.3v6.3l-3,3.3h-6.9l-2.7-3.1
				l-0.2-0.3v-2.7h4.4v1.5l0.6,0.7h2.9l0.6-0.7v-3.8l-0.1-0.1h-6.2l-2.2-2.6v-5.3l2.6-2.9l0.3-0.3h7L540.8,35.5z"/>
			<path d="M551.3,52.1h-7.2v-2.6l1.4-0.9V36.2l-1.4-0.9v-2.6h7.2v2.6l-1.4,0.9v12.5l1.4,0.9V52.1z"/>
			<path d="M553.5,32.6h15.7v6.2h-3.6v-2.1h-2v12l1.4,0.9v2.6h-7.1v-2.6l1.4-0.9v-12h-2v2.1h-3.6V32.6z"/>
			<path d="M580.4,32.6h6.4v2.5l-1.3,1.1l-4.3,8.5v3.9l1.4,0.9v2.6h-7.1v-2.6l1.3-0.9v-3.9l-4.3-8.5l-1.2-1.1v-2.5h6.3v2.5l-0.8,0.7
				l2.2,4.2l2.1-4.2l-0.8-0.7V32.6z"/>
		</g>
		<g>
			<polyline points="144.4,17.7 144.4,98.6 147.1,98.6 147.1,17.7 			"/>
		</g>
		<g>
			<path d="M165.3,79.3V59.8l14.6,15.3V60.6h2.1v19.6l-14.6-15.3v14.4H165.3z"/>
			<path d="M186.4,69.8c0-2.6,1-4.8,2.9-6.7c1.9-1.9,4.2-2.8,6.9-2.8c2.7,0,5,1,6.9,2.9c1.9,1.9,2.9,4.2,2.9,6.8c0,2.7-1,5-2.9,6.9
				c-1.9,1.9-4.2,2.8-6.9,2.8c-2.4,0-4.5-0.8-6.5-2.5C187.4,75.2,186.4,72.8,186.4,69.8z M188.5,69.8c0,2.3,0.8,4.2,2.4,5.7
				c1.5,1.4,3.3,2.1,5.2,2.1c2.1,0,4-0.8,5.5-2.3c1.5-1.5,2.2-3.3,2.2-5.5c0-2.2-0.7-4-2.2-5.5c-1.5-1.5-3.3-2.3-5.4-2.3
				c-2.1,0-3.9,0.7-5.4,2.2C189.2,66,188.5,67.8,188.5,69.8z"/>
			<path d="M215,70.9l5.9,8.4h-2.5l-5.7-8.2h-0.5v8.2h-2.1V60.6h3c2.2,0,3.9,0.4,4.9,1.3c1.1,1,1.7,2.3,1.7,3.9
				c0,1.4-0.4,2.6-1.3,3.5C217.5,70.3,216.4,70.8,215,70.9z M212.2,69.3h1.3c1.3,0,2.4-0.3,3.1-0.9c0.7-0.6,1.1-1.4,1.1-2.5
				c0-2.2-1.4-3.3-4.2-3.3h-1.2V69.3z"/>
			<path d="M229,62.5v16.8h-2.1V62.5h-4.5v-2h11.2v2H229z"/>
			<path d="M238.8,68.2h9.6v-7.6h2.1v18.7h-2.1v-9.2h-9.6v9.2h-2.1V60.6h2.1V68.2z"/>
			<path d="M265.4,62.5h-7.6v5.6h7.4v2h-7.4v7.3h7.6v2h-9.7V60.6h9.7V62.5z"/>
			<path d="M274.6,70.9l5.9,8.4H278l-5.7-8.2h-0.5v8.2h-2.1V60.6h3c2.2,0,3.9,0.4,4.9,1.3c1.1,1,1.7,2.3,1.7,3.9
				c0,1.4-0.4,2.6-1.3,3.5C277.1,70.3,276,70.8,274.6,70.9z M271.8,69.3h1.3c1.3,0,2.4-0.3,3.1-0.9c0.7-0.6,1.1-1.4,1.1-2.5
				c0-2.2-1.4-3.3-4.2-3.3h-1.2V69.3z"/>
			<path d="M284.2,79.3V59.8l14.6,15.3V60.6h2.1v19.6l-14.6-15.3v14.4H284.2z"/>
			<path d="M323.8,69.9h7.8v0.5c0,2-0.3,3.5-1,4.7c-0.8,1.4-1.9,2.5-3.3,3.3c-1.4,0.8-3,1.2-4.6,1.2c-2.6,0-4.9-0.9-6.8-2.8
				c-1.9-1.9-2.8-4.2-2.8-6.8c0-2.7,1-5,2.9-6.9c1.9-1.9,4.2-2.8,6.9-2.8c1.6,0,3,0.3,4.2,1c0.6,0.3,1.2,0.7,1.8,1.2
				c0.6,0.5,1.2,1.1,1.8,1.9l-1.5,1.4c-0.9-1.2-1.9-2.1-2.9-2.7c-1-0.6-2.2-0.8-3.4-0.8c-2.1,0-3.9,0.8-5.4,2.3
				c-1.5,1.5-2.2,3.4-2.2,5.5c0,2.2,0.8,4.1,2.4,5.6c1.5,1.4,3.2,2.1,5.1,2.1c1,0,2-0.2,3-0.7c1-0.5,1.8-1.1,2.4-1.9
				c0.7-0.9,1.1-1.9,1.1-3.2h-5.6V69.9z"/>
			<path d="M338,60.6v11.5c0,1.1,0.1,1.9,0.2,2.5c0.1,0.5,0.4,1,0.7,1.5c0.4,0.5,0.9,0.9,1.6,1.2c0.7,0.3,1.4,0.5,2.1,0.5
				c0.7,0,1.4-0.2,2.1-0.5c0.7-0.3,1.2-0.7,1.6-1.2c0.3-0.4,0.6-0.9,0.7-1.5c0.1-0.6,0.2-1.4,0.2-2.5V60.6h2.1v12
				c0,1.2-0.1,2.1-0.4,2.8c-0.3,0.8-0.7,1.4-1.3,2.1c-1.3,1.4-3,2.1-5,2.1c-2,0-3.7-0.7-5-2.1c-0.6-0.6-1-1.3-1.3-2.1
				c-0.3-0.7-0.4-1.7-0.4-2.8v-12H338z"/>
			<path d="M356.6,60.6v16.8h5.2v2h-7.3V60.6H356.6z"/>
			<path d="M373.5,62.5H367v5.6h6.2v2H367v9.3h-2.1V60.6h8.5V62.5z"/>
			<path d="M387.7,60.6v18.7h-2.1V60.6H387.7z"/>
			<path d="M392.9,79.3V59.8l14.6,15.3V60.6h2.1v19.6L395,64.9v14.4H392.9z"/>
			<path d="M424.9,63.2l-1.7,1.1c-0.5-0.8-0.9-1.3-1.4-1.6c-0.5-0.3-1.1-0.4-1.8-0.4c-0.9,0-1.6,0.3-2.2,0.8
				c-0.6,0.5-0.9,1.2-0.9,2.1c0,1.1,0.9,2,2.6,2.8l1.8,0.8c1.5,0.7,2.6,1.4,3.2,2.2c0.7,0.8,1,1.8,1,3c0,1.6-0.6,3-1.7,4.1
				c-1.2,1.1-2.6,1.7-4.2,1.7c-1.5,0-2.7-0.4-3.7-1.3c-1-0.8-1.7-2-2-3.6l2-0.6c0.5,2.3,1.8,3.4,3.8,3.4c1,0,1.9-0.4,2.7-1.1
				c0.7-0.7,1.1-1.6,1.1-2.6c0-0.8-0.2-1.4-0.7-2c-0.5-0.5-1.3-1-2.5-1.6l-1.7-0.8c-0.7-0.3-1.3-0.6-1.7-0.9c-0.5-0.3-0.9-0.7-1.2-1
				c-0.6-0.7-0.9-1.6-0.9-2.6c0-1.4,0.5-2.5,1.5-3.5c1-0.9,2.3-1.4,3.8-1.4C422.2,60.3,423.8,61.2,424.9,63.2z"/>
			<path d="M434.5,62.5v16.8h-2.1V62.5h-4.5v-2h11.2v2H434.5z"/>
			<path d="M444.4,60.6v18.7h-2.1V60.6H444.4z"/>
			<path d="M454.2,62.5v16.8h-2.1V62.5h-4.5v-2h11.2v2H454.2z"/>
			<path d="M464.1,60.6v11.5c0,1.1,0.1,1.9,0.2,2.5c0.1,0.5,0.4,1,0.7,1.5c0.4,0.5,0.9,0.9,1.6,1.2c0.7,0.3,1.4,0.5,2.1,0.5
				c0.7,0,1.4-0.2,2.1-0.5c0.7-0.3,1.2-0.7,1.6-1.2c0.3-0.4,0.6-0.9,0.7-1.5c0.1-0.6,0.2-1.4,0.2-2.5V60.6h2.1v12
				c0,1.2-0.1,2.1-0.4,2.8c-0.3,0.8-0.7,1.4-1.3,2.1c-1.3,1.4-3,2.1-5,2.1c-2,0-3.7-0.7-5-2.1c-0.6-0.6-1-1.3-1.3-2.1
				c-0.3-0.7-0.4-1.7-0.4-2.8v-12H464.1z"/>
			<path d="M485.2,62.5v16.8h-2.1V62.5h-4.5v-2h11.2v2H485.2z"/>
			<path d="M502.7,62.5H495v5.6h7.4v2H495v7.3h7.6v2h-9.7V60.6h9.7V62.5z"/>
		</g>
	</g>
	<g>
		<path d="M593.8,45.3v1.1h-2.2v5.7h-1.4v-5.7h-2.2v-1.1H593.8z M601.1,52.1l-0.3-4c0-0.5,0-1.2,0-1.9h-0.1c-0.2,0.6-0.4,1.4-0.6,2
			L599,52h-1.4l-1.2-3.9c-0.1-0.5-0.3-1.3-0.5-1.9h-0.1c0,0.6,0,1.3-0.1,1.9l-0.2,4h-1.3l0.5-6.8h2l1.2,3.3c0.1,0.5,0.3,1,0.5,1.7h0
			c0.2-0.6,0.3-1.2,0.5-1.7l1.2-3.4h2l0.5,6.8H601.1z"/>
	</g>
</g>
</svg>
