<?xml version="1.0" encoding="UTF-8"?>
<svg version="1.1" xmlns="http://www.w3.org/2000/svg" width="51" height="51">
<path d="M0 0 C5.01470246 3.77537096 8.13523439 9.76042658 9.3125 15.875 C10.14302211 24.37188006 8.03622697 31.45036114 2.90234375 38.26953125 C-2.12838762 43.3497047 -8.87362008 45.97254216 -15.9375 46.125 C-23.36039908 46.01548182 -30.38006646 43.13077969 -35.6875 37.875 C-40.57335186 30.81765842 -42.46253822 24.41451198 -41.6875 15.875 C-40.17750085 9.43075168 -37.02098753 3.18279906 -31.50390625 -0.63671875 C-20.68995865 -6.83387427 -10.60156239 -6.61738991 0 0 Z " fill="#FC6969" transform="translate(41.6875,5.125)"/>
<path d="M0 0 C5.01470246 3.77537096 8.13523439 9.76042658 9.3125 15.875 C10.14302211 24.37188006 8.03622697 31.45036114 2.90234375 38.26953125 C-2.12838762 43.3497047 -8.87362008 45.97254216 -15.9375 46.125 C-23.36039908 46.01548182 -30.38006646 43.13077969 -35.6875 37.875 C-40.57335186 30.81765842 -42.46253822 24.41451198 -41.6875 15.875 C-40.17750085 9.43075168 -37.02098753 3.18279906 -31.50390625 -0.63671875 C-20.68995865 -6.83387427 -10.60156239 -6.61738991 0 0 Z M-34.34375 6.5625 C-38.98673735 12.54679481 -38.57349112 19.65206288 -37.6875 26.875 C-35.95104452 33.69139668 -31.48360529 37.24929777 -25.6875 40.875 C-20.57431896 43.43159052 -12.6212115 42.59693214 -7.1953125 41.26171875 C-1.87206643 38.91079101 1.3848903 34.8083769 4.3125 29.875 C6.36855762 23.70682715 6.64530214 16.15858173 4.18359375 10.09375 C0.61686076 4.50617873 -3.35032601 0.98739133 -9.6875 -1.125 C-20.33397672 -2.20606897 -26.82468915 -1.09842993 -34.34375 6.5625 Z " fill="#0B0505" transform="translate(41.6875,5.125)"/>
</svg>
