<svg xmlns="http://www.w3.org/2000/svg" viewBox="0 0 250 60.46" aria-labelledby="footerLogoTitle footerLogoDesc" role="img" alt="NOAA Ocean Exploration emblem"><desc id="footerLogoDesc">Return to site homepage.</desc><defs><style>.cls-1{fill:#fff;}.cls-2{fill:#9edcf9;}.cls-3{fill:#0072bc;}.cls-4{fill:#83abdb;}</style></defs><path class="cls-1" d="M707.33,776.63v3.29H693.61V762.2H707v3.29h-9.32v3.85h8.23v3.19h-8.23v4.1Z" transform="translate(-625 -719.77)"></path><path class="cls-1" d="M721.59,779.92l-4.28-6.15-4.2,6.15H708.4l6.56-9-6.23-8.71h4.66l4.07,5.75,4-5.75h4.44l-6.18,8.56,6.61,9.16Z" transform="translate(-625 -719.77)"></path><path class="cls-1" d="M739.71,763a6.09,6.09,0,0,1,2.67,2.23,6.67,6.67,0,0,1,0,6.83,6,6,0,0,1-2.67,2.23,10.08,10.08,0,0,1-4.09.77h-3.57v4.88H728V762.2h7.67A9.92,9.92,0,0,1,739.71,763Zm-1.51,7.92a3.19,3.19,0,0,0,0-4.56,4.32,4.32,0,0,0-2.81-.8h-3.34v6.15h3.34A4.32,4.32,0,0,0,738.2,770.9Z" transform="translate(-625 -719.77)"></path><path class="cls-1" d="M745.6,762.2h4.1v14.38h8.89v3.34h-13Z" transform="translate(-625 -719.77)"></path><path class="cls-1" d="M763.57,779a9.22,9.22,0,0,1-3.47-12.68,8.82,8.82,0,0,1,3.47-3.27,11,11,0,0,1,9.94,0A9.18,9.18,0,0,1,777,775.76a9.05,9.05,0,0,1-3.47,3.28,11,11,0,0,1-9.94,0Zm7.81-3a5.13,5.13,0,0,0,2-2,6.36,6.36,0,0,0,0-5.88,5.13,5.13,0,0,0-2-2,5.94,5.94,0,0,0-5.67,0,5.13,5.13,0,0,0-2,2,6.36,6.36,0,0,0,0,5.88,5.13,5.13,0,0,0,2,2,5.94,5.94,0,0,0,5.67,0Z" transform="translate(-625 -719.77)"></path><path class="cls-1" d="M791.37,779.92,788,775h-3.77v4.93h-4.11V762.2h7.68a9.92,9.92,0,0,1,4.09.78,5.85,5.85,0,0,1,3.6,5.65,6,6,0,0,1-1,3.41,6.06,6.06,0,0,1-2.69,2.19l4,5.69Zm-1-13.58a4.32,4.32,0,0,0-2.81-.8h-3.34v6.18h3.34a4.26,4.26,0,0,0,2.81-.81,3.2,3.2,0,0,0,0-4.57Z" transform="translate(-625 -719.77)"></path><path class="cls-1" d="M810.36,776.13h-8.23l-1.57,3.79h-4.21l7.91-17.72h4l7.92,17.72h-4.3ZM809.07,773l-2.81-6.78L803.44,773Z" transform="translate(-625 -719.77)"></path><path class="cls-1" d="M819,765.54h-5.67V762.2h15.44v3.34h-5.67v14.38H819Z" transform="translate(-625 -719.77)"></path><path class="cls-1" d="M831,762.2h4.1v17.72H831Z" transform="translate(-625 -719.77)"></path><path class="cls-1" d="M842.24,779a9.22,9.22,0,0,1-3.47-12.68,8.82,8.82,0,0,1,3.47-3.27,11,11,0,0,1,9.94,0,9.18,9.18,0,0,1,3.47,12.67,9.05,9.05,0,0,1-3.47,3.28,11,11,0,0,1-9.94,0Zm7.81-3a5.13,5.13,0,0,0,2-2,6.36,6.36,0,0,0,0-5.88,5.13,5.13,0,0,0-2-2,5.94,5.94,0,0,0-5.67,0,5.13,5.13,0,0,0-2,2,6.36,6.36,0,0,0,0,5.88,5.13,5.13,0,0,0,2,2,5.94,5.94,0,0,0,5.67,0Z" transform="translate(-625 -719.77)"></path><path class="cls-1" d="M875,762.2v17.72h-3.37l-8.84-10.76v10.76h-4V762.2h3.4L871,773V762.2Z" transform="translate(-625 -719.77)"></path><path class="cls-1" d="M776.44,727.59a20,20,0,0,1,2.43.61l.55.18.71.27.08,0,.09,0,.65.28v-.26h0v-.69h17.33v-7.51H771.33v2.87h0v4.74A10.76,10.76,0,0,1,776.44,727.59Z" transform="translate(-625 -719.77)"></path><path class="cls-1" d="M865.48,720.54V722h0v10.55c2.33.26,4.85-.26,8.15-2,.45-.3.9-.6,1.37-.88v-6.91h0v-2.24Z" transform="translate(-625 -719.77)"></path><path class="cls-1" d="M697.13,730.57a22.8,22.8,0,0,1,3.59-2.06,15,15,0,0,1,6.18-1.19,18.44,18.44,0,0,1,4.59.66,9.74,9.74,0,0,1,1.22-.08,9.2,9.2,0,0,1,4.71,1.23,8.76,8.76,0,0,1,3.07,3c2.13.93,4.75,1.84,6.36,1.8a21.64,21.64,0,0,0,4.48-.47,16.72,16.72,0,0,0-2-5,17.43,17.43,0,0,0-6.83-6.38,21.92,21.92,0,0,0-19.59,0,17.4,17.4,0,0,0-6.82,6.38,15.91,15.91,0,0,0-1.5,3.18c-.09.25-.17.51-.24.77l0,0C695.31,731.86,696.2,731.21,697.13,730.57Z" transform="translate(-625 -719.77)"></path><path class="cls-1" d="M749.76,728.13c.3.08.58.18.85.28a10.45,10.45,0,0,1,3.32-.51,10.07,10.07,0,0,1,7.73,3.62c.12.14.25.26.37.41l.64-.57,5.55-5a16.48,16.48,0,0,0-6.29-4.81,20.85,20.85,0,0,0-8.49-1.67,20.28,20.28,0,0,0-9.7,2.29,17.13,17.13,0,0,0-6.75,6.35,17.51,17.51,0,0,0-1.52,3.29l.07,0C739.77,729.59,744.4,726.6,749.76,728.13Z" transform="translate(-625 -719.77)"></path><path class="cls-1" d="M857.5,729.32l.15.08-7.34-8.86h-8V730l.56-.29C847.47,727.21,852,726.21,857.5,729.32Z" transform="translate(-625 -719.77)"></path><path class="cls-1" d="M815,727.13h0c5.08,0,7.84.69,11.53,3l1,.62a26.06,26.06,0,0,0,2.42,1l-4.15-9.36h0l-.81-1.84h-9.57l-3,6.84a14.48,14.48,0,0,1,2.6-.25Z" transform="translate(-625 -719.77)"></path><path class="cls-2" d="M746.83,730.82a8.77,8.77,0,0,1,2.12-1.69,9.46,9.46,0,0,1,1.66-.72c-.27-.1-.55-.2-.85-.28-5.36-1.53-10,1.46-14.22,3.61l-.07,0a17.77,17.77,0,0,0-.58,2.2h0a19.78,19.78,0,0,0-.35,3.74,17.77,17.77,0,0,0,1.77,8,26.21,26.21,0,0,0,10.58-1,8.39,8.39,0,0,1-1.33-1.85,11.57,11.57,0,0,1,0-10.26A9.16,9.16,0,0,1,746.83,730.82Z" transform="translate(-625 -719.77)"></path><polygon class="cls-2" points="106.56 14.89 106.33 13.73 106.56 14.89 106.56 14.89"></polygon><path class="cls-2" d="M731.56,734.66h0l-.23-1.16a21.64,21.64,0,0,1-4.48.47c-1.61,0-4.23-.87-6.36-1.8l.15.24h0l.12.18a10.46,10.46,0,0,1,1.23,5.13,11.77,11.77,0,0,1-.32,2.78,42.06,42.06,0,0,1,8.34,3.38c.21.11.43.2.64.29a17.72,17.72,0,0,0,1.16-6.45,19.15,19.15,0,0,0-.25-3.06Z" transform="translate(-625 -719.77)"></path><path class="cls-2" d="M704.66,742.85a11.31,11.31,0,0,1,0-10.26,8.81,8.81,0,0,1,3.33-3.46,9,9,0,0,1,3.5-1.15h0a18.44,18.44,0,0,0-4.59-.66,15,15,0,0,0-6.18,1.19,22.24,22.24,0,0,0-3.58,2.06c-.93.64-1.82,1.28-2.73,1.88l-.06,0a18.26,18.26,0,0,0-.74,5.23,17.49,17.49,0,0,0,1.86,8.07,29.21,29.21,0,0,0,10-1.72A9.51,9.51,0,0,1,704.66,742.85Z" transform="translate(-625 -719.77)"></path><path class="cls-2" d="M781,744.88v-3.77h15.27v-7.26H781V729l-.65-.28-.17-.07-.71-.27-.55-.18a20,20,0,0,0-2.43-.61,10.76,10.76,0,0,0-5.11.56v14.07a21.14,21.14,0,0,0,7.31,2.47C779.43,744.79,780.2,744.85,781,744.88Z" transform="translate(-625 -719.77)"></path><path class="cls-2" d="M865.48,732.54v2.19h0v4.12l-3.68-4.43h0l-4.15-5-.15-.08c-5.54-3.11-10-2.11-14.64.35l-.56.29v2.88h0v6.63a18.87,18.87,0,0,1,9.53-.27v-2.61l2.9,3.51c2.5.93,5.2,2.26,8.65,3.78A22.46,22.46,0,0,0,875,745.66v-16c-.47.28-.92.58-1.37.88C870.33,732.28,867.81,732.8,865.48,732.54Z" transform="translate(-625 -719.77)"></path><path class="cls-2" d="M815.68,741l4.4-11,4.42,11h-8.73c8.93,3.54,12.33,3.15,18.7,1l-4.35-9.81h0l-.11-.06.11.06-.22-.51a26.06,26.06,0,0,1-2.42-1l-1-.62c-3.69-2.31-6.45-3-11.53-3h0a14.48,14.48,0,0,0-2.6.25l-5,11.42a13.8,13.8,0,0,1,5.8,1.16C814,740.35,814.87,740.7,815.68,741Z" transform="translate(-625 -719.77)"></path><path class="cls-3" d="M815.66,741.06h.11l-.09,0Z" transform="translate(-625 -719.77)"></path><path class="cls-4" d="M721.67,740.5a9.8,9.8,0,0,1-.91,2.35,8.86,8.86,0,0,1-3.34,3.47,9.72,9.72,0,0,1-9.43,0,8.78,8.78,0,0,1-2.53-2.25,29.21,29.21,0,0,1-10,1.72c.19.37.4.75.62,1.11a17.36,17.36,0,0,0,6.82,6.39,22,22,0,0,0,19.59,0,17.38,17.38,0,0,0,6.83-6.39,16.35,16.35,0,0,0,1.32-2.73c-.21-.09-.43-.18-.64-.29A42.06,42.06,0,0,0,721.67,740.5Z" transform="translate(-625 -719.77)"></path><path class="cls-4" d="M736.31,745.69c.21.43.44.85.68,1.26a17.09,17.09,0,0,0,6.75,6.36,20.39,20.39,0,0,0,9.7,2.28,20.85,20.85,0,0,0,8.49-1.66,16.41,16.41,0,0,0,6.29-4.82L762,743.52a10.37,10.37,0,0,1-13.08,2.8,8.83,8.83,0,0,1-2.06-1.62A26.21,26.21,0,0,1,736.31,745.69Z" transform="translate(-625 -719.77)"></path><path class="cls-4" d="M781,744.88c-.75,0-1.52-.09-2.31-.19a21.14,21.14,0,0,1-7.31-2.47v12.69h27.59V747.4H781Z" transform="translate(-625 -719.77)"></path><path class="cls-4" d="M815.77,741.06h-.11l0,0c-.81-.32-1.67-.67-2.57-1.06a13.8,13.8,0,0,0-5.8-1.16l-7.11,16.11h9.91l2.7-6.68h14.53l2.7,6.68h10.12l-5.69-12.85C828.1,744.21,824.7,744.6,815.77,741.06Z" transform="translate(-625 -719.77)"></path><path class="cls-4" d="M842.3,739.47v15.44h9.53V739.2A18.87,18.87,0,0,0,842.3,739.47Z" transform="translate(-625 -719.77)"></path><path class="cls-4" d="M863.38,743.88c-3.45-1.52-6.15-2.85-8.65-3.78L867,754.91h8v-9.25A22.46,22.46,0,0,1,863.38,743.88Z" transform="translate(-625 -719.77)"></path><path class="cls-1" d="M685.46,749.89a30.39,30.39,0,0,0-2.13-11.19c-.29-.74-.62-1.48-1-2.2a3.53,3.53,0,0,0-.21-.32l0,.06-.24.54,0,.08a42.65,42.65,0,0,1-5.65,7.6c-4.6,5.15-10.74,10.55-14.72,11.15a1,1,0,0,0,.23.13c1.21.59,3.42.14,4.54.09a4,4,0,0,1,2.21.49,1.3,1.3,0,0,1,.55.63,1.66,1.66,0,0,1,.06.21c-2.13-.21-9.66,2-11.33,3-1.36.8-6.14,3.92-10.12,3a5.56,5.56,0,0,1-.9-.29A5.79,5.79,0,0,1,645,761.8h.2c2.14-.2,8-2.18,8.83-3.63a5.17,5.17,0,0,1-1,.1,18.06,18.06,0,0,1-4.09-.56c-3.83-.9-8.61-2.88-11.42-5.67-1.66-1.64-3.22-3.38-4.7-5-2.41-2.59-4.61-4.8-6.7-5.61a30.25,30.25,0,1,0,59.27,8.44" transform="translate(-625 -719.77)"></path><path class="cls-1" d="M638.9,740.21c1.13,1.49,2.12,2.88,2.82,3.87,3.69,5.15,16,22.19,25,3.09,0,0,4.26-8.36,5-9.41,0,0,3.06-6,7.5-5.88a22.9,22.9,0,0,0-2.47-3,30.15,30.15,0,0,0-45.33,2.54c-.26.34-.52.69-.77,1a4.59,4.59,0,0,1,1.52.69C634.3,734.48,636.83,737.5,638.9,740.21Zm22.71-6.82a1.65,1.65,0,0,1,1.56-1.48h1.91a1.49,1.49,0,0,1,1.56,1.48v6.25h-1.56v-2.93h-1.91v2.93h-1.56Zm-6.25,0a1.65,1.65,0,0,1,1.56-1.48h1.91a1.48,1.48,0,0,1,1.56,1.48v6.25h-1.56v-2.93h-1.91v2.93h-1.56Zm-6.26.56v-.56a1.54,1.54,0,0,1,1.56-1.49h1.91a1.51,1.51,0,0,1,1.56,1.49v4.8a1.81,1.81,0,0,1-1.56,1.44h-1.91a1.75,1.75,0,0,1-1.56-1.44Zm-6.23-2h3.21a1.65,1.65,0,0,1,1.82,1.48v6.25h-1.56V734c0-.35-.17-.57-.48-.57h-1.43v6.25h-1.56Z" transform="translate(-625 -719.77)"></path><rect class="cls-1" x="25.66" y="13.58" width="1.91" height="4.83" rx="0.51"></rect><path class="cls-1" d="M665.08,734a.56.56,0,0,0-.57-.57h-.82a.57.57,0,0,0-.52.57v1.26h1.91Z" transform="translate(-625 -719.77)"></path><path class="cls-1" d="M658.83,734a.56.56,0,0,0-.56-.57h-.83a.57.57,0,0,0-.52.57v1.26h1.91Z" transform="translate(-625 -719.77)"></path></svg>