<?xml version="1.0" encoding="UTF-8"?>
<svg id="Layer_2" data-name="Layer 2" xmlns="http://www.w3.org/2000/svg" viewBox="0 0 249.21 82.79">
  <defs>
    <style>
      .cls-1 {
        fill: #bfd0e4;
      }

      .cls-2 {
        fill: #263c7f;
      }

      .cls-3, .cls-4 {
        fill: none;
        stroke: #1382c5;
        stroke-miterlimit: 10;
      }

      .cls-5 {
        fill: #64abdc;
      }

      .cls-6 {
        fill: #1382c5;
      }

      .cls-4 {
        stroke-width: 3px;
      }
    </style>
  </defs>
  <g id="Layer_1-2" data-name="Layer 1">
    <line class="cls-3" x1="155.83" y1="50.71" x2="164.14" y2="57.18"/>
    <path class="cls-4" d="M161.14,59.78c7.08-3.72,18.28-10.08,10.72-18.54-2.67-3.24-6.22-5.85-9.05-8.97-9.95-11.5-2.46-21.32,8.04-27.26"/>
    <path class="cls-4" d="M145.22,55.2c6.49-1.66,14.69-5.15,20.02-9.32,7.03-5.31,11.06-14.04,8.25-22-3.39-9.21-13.81-15.4-21.31-21.27"/>
    <g>
      <path class="cls-6" d="M70.22,31.61c.86-2.5,4.14-6.11,6.66-7.34,4.56-2.23,9.62-2.17,14.22-.07,2.46,1.12,4.58,3.29,6.78,4.83.99.69,2.24,1.48,3.31,2.08,7.28,4.08,18.42,3.3,23.05-3.79.18,0,.18.55.2.67.04.2.06.39.08.59.1.82.18,2.01.08,2.82-.13,1.12-.8,2.34-1.47,3.27-4.25,6.73-14.73,7.38-21.94,4.6-6.41-2.47-10.86-9-18.39-8.91-5,.06-10.17,3.3-12.42,7.28"/>
      <path class="cls-1" d="M123.29,27.87c-.19-.37-.44-.66-.74-1-.09-.11-.14-.23-.25-.33-.14-.14-.21-.32-.45-.43-5.69,2.75-14.4,2.59-20.51.38-3.26-1.18-5.83-3.07-9.24-4.13-7.29-2.27-15.59-.97-19.25,3.37-1.48,1.43-2.29,3.29-2.53,4.94-.04.24-.09.81,0,1.05.86-1.6,3.85-3.44,6.37-4.23,4.56-1.43,9.71-1.47,14.32-.13,2.46.72,6.13,2.72,8.34,3.7,5.97,2.47,11.69,3.03,18.14,1.64,2.16-.46,6.03-2.04,6.36-3.23.14-.5-.36-1.2-.57-1.62Z"/>
      <path class="cls-2" d="M119.19,37.1c-4.43,2.22-10.75,2.14-15.94,1.04-7.43-1.58-9.4-5.67-17.51-7.65-5.27-1.29-10.98,1.29-14.02,4.69-.58.65-1.18,1.22-1.06,2,.08.48.38.95.57,1.41.08.2.15.36.25.55.04.07.08.12.08.12.2.38.28.81.61,1.17,3.34-2.52,7.9-3.93,12.67-3.19,5.54.86,9.62,4.99,14.71,6.69,7.4,2.47,18.09,1.68,22.35-4.05.93-1.26,1.95-2.93,2.53-4.3.71-1.65.62-3.27.56-4.88,0,0,.85,3.08-5.8,6.41Z"/>
      <g>
        <path class="cls-5" d="M.25,79.16v-12.36h2.21l5.01,6.25c1.16,1.45,2.07,2.75,2.81,4.02l.05-.02c-.19-1.65-.23-3.15-.23-5.08v-5.17h1.9v12.36h-2.04l-4.97-6.27c-1.09-1.38-2.14-2.79-2.92-4.13l-.07.02c.12,1.56.16,3.04.16,5.1v5.28H.25Z"/>
        <path class="cls-5" d="M28.42,72.85c0,4.25-3.27,6.51-7.26,6.51s-7.03-2.53-7.03-6.27,3.09-6.49,7.26-6.49,7.03,2.59,7.03,6.25ZM16.29,73.05c0,2.64,1.81,5.01,4.99,5.01s5.01-2.33,5.01-5.14c0-2.46-1.62-5.03-4.99-5.03s-5.01,2.44-5.01,5.15Z"/>
        <path class="cls-5" d="M32.79,75.27l-1.62,3.89h-2.09l5.31-12.36h2.44l5.34,12.36h-2.16l-1.67-3.89h-5.55ZM37.92,74.02l-1.53-3.56c-.35-.81-.58-1.54-.81-2.26h-.05c-.23.73-.49,1.49-.79,2.24l-1.53,3.58h4.71Z"/>
        <path class="cls-5" d="M46.52,75.27l-1.62,3.89h-2.09l5.31-12.36h2.44l5.34,12.36h-2.16l-1.67-3.89h-5.55ZM51.65,74.02l-1.53-3.56c-.35-.81-.58-1.54-.81-2.26h-.05c-.23.73-.49,1.49-.79,2.24l-1.53,3.58h4.71Z"/>
        <path class="cls-5" d="M75.56,72.85c0,4.25-3.27,6.51-7.26,6.51s-7.03-2.53-7.03-6.27,3.09-6.49,7.26-6.49,7.03,2.59,7.03,6.25ZM63.42,73.05c0,2.64,1.81,5.01,4.99,5.01s5.01-2.33,5.01-5.14c0-2.46-1.62-5.03-4.99-5.03s-5.01,2.44-5.01,5.15Z"/>
        <path class="cls-5" d="M85.74,78.83c-.53.22-1.72.51-3.23.51-3.39,0-5.59-1.82-5.59-4.53s2.37-4.71,6.03-4.71c1.21,0,2.27.24,2.83.46l-.46,1.25c-.49-.22-1.25-.42-2.37-.42-2.58,0-3.97,1.5-3.97,3.36,0,2.05,1.67,3.32,3.9,3.32,1.16,0,1.93-.24,2.51-.44l.35,1.21Z"/>
        <path class="cls-5" d="M88.66,75.01c.05,2.18,1.81,3.08,3.85,3.08,1.46,0,2.34-.2,3.11-.46l.35,1.16c-.72.26-1.95.55-3.74.55-3.46,0-5.52-1.8-5.52-4.48s2-4.79,5.27-4.79c3.67,0,4.64,2.55,4.64,4.18,0,.33-.05.59-.07.75h-7.89ZM94.65,73.85c.02-1.03-.53-2.62-2.83-2.62-2.07,0-2.97,1.5-3.13,2.62h5.96Z"/>
        <path class="cls-5" d="M104.91,79.16l-.16-1.12h-.07c-.63.7-1.83,1.32-3.44,1.32-2.27,0-3.43-1.27-3.43-2.55,0-2.15,2.41-3.32,6.75-3.3v-.18c0-.73-.26-2.05-2.55-2.05-1.04,0-2.14.26-2.92.66l-.46-1.06c.93-.48,2.27-.79,3.69-.79,3.43,0,4.27,1.85,4.27,3.63v3.32c0,.77.05,1.52.19,2.13h-1.86ZM104.61,74.62c-2.23-.04-4.76.28-4.76,2,0,1.05.88,1.54,1.93,1.54,1.46,0,2.39-.73,2.72-1.49.07-.17.12-.35.12-.51v-1.54Z"/>
        <path class="cls-5" d="M109.41,72.68c0-.92-.02-1.67-.09-2.4h1.81l.12,1.47h.05c.56-.84,1.86-1.67,3.71-1.67,1.55,0,3.97.73,3.97,3.78v5.3h-2.04v-5.12c0-1.43-.67-2.62-2.6-2.62-1.35,0-2.39.75-2.74,1.65-.09.2-.14.48-.14.75v5.34h-2.04v-6.47Z"/>
        <path class="cls-5" d="M126.35,66.96c1.23-.15,2.69-.26,4.29-.26,2.9,0,4.97.53,6.34,1.54,1.39,1.01,2.2,2.44,2.2,4.44s-.79,3.67-2.25,4.81c-1.46,1.16-3.88,1.78-6.92,1.78-1.44,0-2.65-.06-3.67-.15v-12.16ZM128.37,77.89c.51.07,1.25.09,2.04.09,4.32,0,6.66-1.91,6.66-5.25.02-2.92-2.07-4.77-6.34-4.77-1.04,0-1.83.07-2.37.17v9.76Z"/>
        <path class="cls-5" d="M141.34,79.16v-12.36h2.21l5.01,6.25c1.16,1.45,2.07,2.75,2.81,4.02l.05-.02c-.19-1.65-.23-3.15-.23-5.08v-5.17h1.9v12.36h-2.04l-4.97-6.27c-1.09-1.38-2.14-2.79-2.92-4.13l-.07.02c.12,1.56.16,3.04.16,5.1v5.28h-1.9Z"/>
        <path class="cls-5" d="M158.67,75.27l-1.62,3.89h-2.09l5.31-12.36h2.44l5.34,12.36h-2.16l-1.67-3.89h-5.55ZM163.8,74.02l-1.53-3.56c-.35-.81-.58-1.54-.81-2.26h-.05c-.23.73-.49,1.49-.79,2.24l-1.53,3.58h4.71Z"/>
        <path class="cls-5" d="M182.44,73.36h-6.08v4.46h6.78v1.34h-8.8v-12.36h8.45v1.34h-6.43v3.91h6.08v1.32Z"/>
        <path class="cls-5" d="M186.17,70.28l1.6,1.91c.42.5.77.95,1.14,1.45h.07c.37-.53.74-.99,1.11-1.47l1.58-1.89h2.21l-3.83,4.29,3.95,4.58h-2.32l-1.65-2c-.44-.51-.81-1.01-1.21-1.54h-.05c-.37.53-.77,1.01-1.18,1.54l-1.62,2h-2.25l3.99-4.53-3.81-4.35h2.27Z"/>
        <path class="cls-5" d="M195.5,73.18c0-1.14-.05-2.05-.09-2.9h1.83l.09,1.52h.05c.84-1.08,2.16-1.72,3.99-1.72,2.72,0,4.76,1.82,4.76,4.51,0,3.19-2.46,4.77-5.11,4.77-1.49,0-2.79-.51-3.46-1.39h-.05v4.82h-2.02v-9.61ZM197.52,75.54c0,.24.05.46.09.66.37,1.12,1.6,1.89,3.06,1.89,2.16,0,3.41-1.39,3.41-3.43,0-1.78-1.18-3.3-3.34-3.3-1.39,0-2.69.79-3.09,2-.07.2-.14.44-.14.66v1.52Z"/>
        <path class="cls-5" d="M208.24,66.13h2.04v13.02h-2.04v-13.02Z"/>
        <path class="cls-5" d="M223.42,74.64c0,3.28-2.88,4.71-5.59,4.71-3.04,0-5.38-1.76-5.38-4.57,0-2.97,2.46-4.71,5.57-4.71s5.41,1.85,5.41,4.57ZM214.51,74.74c0,1.94,1.42,3.41,3.41,3.41s3.41-1.45,3.41-3.45c0-1.5-.95-3.41-3.37-3.41s-3.46,1.76-3.46,3.45Z"/>
        <path class="cls-5" d="M225.53,73.05c0-1.05-.02-1.94-.09-2.77h1.79l.07,1.74h.09c.51-1.19,1.74-1.94,3.11-1.94.23,0,.4.02.58.06v1.52c-.21-.04-.42-.05-.7-.05-1.44,0-2.46.86-2.74,2.07-.05.22-.09.48-.09.75v4.73h-2.02v-6.11Z"/>
        <path class="cls-5" d="M233.56,75.01c.05,2.18,1.81,3.08,3.85,3.08,1.46,0,2.34-.2,3.11-.46l.35,1.16c-.72.26-1.95.55-3.74.55-3.46,0-5.52-1.8-5.52-4.48s2-4.79,5.27-4.79c3.67,0,4.64,2.55,4.64,4.18,0,.33-.05.59-.07.75h-7.89ZM239.54,73.85c.02-1.03-.53-2.62-2.83-2.62-2.07,0-2.97,1.5-3.13,2.62h5.96Z"/>
        <path class="cls-5" d="M243.58,73.05c0-1.05-.02-1.94-.09-2.77h1.79l.07,1.74h.09c.51-1.19,1.74-1.94,3.11-1.94.23,0,.4.02.58.06v1.52c-.21-.04-.42-.05-.7-.05-1.44,0-2.46.86-2.74,2.07-.05.22-.09.48-.09.75v4.73h-2.02v-6.11Z"/>
      </g>
      <text/>
      <g>
        <path class="cls-5" d="M0,1.09h5.7l31.44,42.17c2.85,4.01,5.81,8.2,8.43,12.11h.46c-.34-5.92-.68-11.66-.68-17.49V1.09h5.01v60.02h-5.7L13.21,18.94c-2.85-4.01-5.81-8.2-8.43-12.11h-.46c.34,5.74.68,11.2.68,17.03v37.25H0V1.09Z"/>
        <path class="cls-5" d="M64.81,30.88c0-18.94,12.87-30.88,30.87-30.88s30.98,11.93,30.98,30.88-12.87,31.33-30.98,31.33-30.87-12.3-30.87-31.33ZM121.08,30.88c0-16.58-10.14-27.05-25.4-27.05s-25.4,10.47-25.4,27.05,10.14,27.51,25.4,27.51,25.4-10.84,25.4-27.51Z"/>
        <path class="cls-5" d="M141.01,1.09h17.43c23.12,0,34.06,11.66,34.06,29.78s-10.94,30.24-33.94,30.24h-17.54V1.09ZM157.87,57.56c20.39,0,29.16-11.02,29.16-26.69s-8.77-26.23-29.16-26.23h-11.62v52.92h11.62Z"/>
        <path class="cls-5" d="M206.95,1.09h41.12v3.64h-35.88v22.68h30.07v3.64h-30.07v26.41h37.02v3.64h-42.26V1.09Z"/>
      </g>
    </g>
    <line class="cls-3" x1="158.9" y1="20.25" x2="173.49" y2="22.4"/>
    <line class="cls-3" x1="158.9" y1="27.66" x2="174.37" y2="30.29"/>
    <line class="cls-3" x1="161.75" y1="48.37" x2="173.49" y2="49.61"/>
  </g>
</svg>