<?xml version="1.0" encoding="UTF-8"?>
<svg id="Layer_1" data-name="Layer 1" xmlns="http://www.w3.org/2000/svg" viewBox="0 0 272.56 90.37">
  <defs>
    <style>
      .cls-1, .cls-2 {
        font-size: 18px;
      }

      .cls-1, .cls-2, .cls-3, .cls-4, .cls-5 {
        font-family: ProximaNova-Bold, 'Proxima Nova';
        font-weight: 700;
      }

      .cls-6 {
        fill: #bfd0e4;
      }

      .cls-2, .cls-3 {
        fill: #64abdc;
      }

      .cls-3, .cls-4, .cls-5 {
        font-size: 98.55px;
      }

      .cls-7 {
        fill: #1382c5;
      }

      .cls-4 {
        stroke: #231f20;
      }

      .cls-4, .cls-8 {
        fill: none;
        stroke-miterlimit: 10;
      }

      .cls-9 {
        letter-spacing: 0em;
      }

      .cls-10 {
        letter-spacing: 0em;
      }

      .cls-11 {
        fill: #263c7f;
      }

      .cls-12 {
        letter-spacing: .03em;
      }

      .cls-8 {
        stroke: #1382c5;
      }
    </style>
  </defs>
  <g>
    <path class="cls-7" d="M86.55,38.54c.64-2.08,3.12-5.07,5.02-6.09,3.44-1.85,7.25-1.8,10.72-.06,1.85.93,3.45,2.73,5.11,4,.75.57,1.69,1.23,2.5,1.72,5.49,3.38,13.89,2.74,17.37-3.14.13,0,.14.45.15.55.03.17.04.32.06.49.07.68.13,1.67.06,2.34-.1.93-.6,1.94-1.11,2.71-3.2,5.59-11.11,6.12-16.54,3.82-4.83-2.05-8.18-7.47-13.86-7.39-3.77.05-7.67,2.73-9.36,6.04"/>
    <path class="cls-6" d="M126.56,32.21c-.14-.48-.33-.85-.55-1.29-.07-.14-.1-.29-.18-.43-.11-.19-.16-.41-.34-.55-4.29,3.56-10.85,3.35-15.46.49-2.46-1.53-4.39-3.98-6.96-5.36-5.49-2.95-11.75-1.25-14.51,4.37-1.12,1.85-1.73,4.26-1.91,6.41-.03.32-.07,1.05,0,1.36.64-2.08,2.91-4.46,4.81-5.48,3.44-1.85,7.32-1.91,10.79-.16,1.85.93,4.62,3.53,6.28,4.8,4.5,3.21,8.81,3.93,13.68,2.13,1.62-.6,4.54-2.65,4.79-4.18.11-.64-.27-1.56-.43-2.09Z"/>
    <path class="cls-11" d="M123.47,45.1c-3.34,2.22-8.11,2.15-12.02,1.04-5.6-1.58-7.09-5.69-13.2-7.67-3.97-1.29-8.28,1.29-10.57,4.7-.44.65-.89,1.23-.8,2,.06.48.29.96.43,1.42.06.2.11.36.18.55.03.07.06.12.06.12.15.38.21.82.46,1.17,2.52-2.53,5.96-3.94,9.55-3.2,4.18.86,7.26,5.01,11.09,6.72,5.58,2.48,13.64,1.69,16.85-4.07.7-1.26,1.47-2.94,1.91-4.31.53-1.66.47-3.28.42-4.9,0,0,.64,3.09-4.37,6.43Z"/>
    <path class="cls-8" d="M166.27,13.72c.02.92-.05,1.84.06,2.76.38,2.37,2.49,4.65,5.67,6.46,4.09,2.32,9.65,4.22,13.62,6.63,10.45,5.5,9.58,11.38-1.62,16.44-2.56,1.19-5.33,2.28-7.71,3.56-3.07,1.71-6.03,3.57-7.5,5.73-1.37,2.02-1.26,4.16-1.39,6.26M192.82,13.72c.74,5.94-1.94,7.93-10.66,11.97-2.86,1.33-5.91,2.59-8.34,4.12-3,1.89-5.25,4.24-5.49,6.65-.81,4.91,3.05,7.58,10.18,10.87,4.69,2.23,9.09,4.65,12.18,7.46,2.18,2.03,2.3,4.37,2.25,6.61M166.27,14.01h26.55M192.94,16.72h-1.55s-25.06.11-25.06.11M167.94,19.71l24.28-.38M172.53,23.23l16.88-1.28M172.71,30.48l15.79.8M169.33,33.69l22.35.47M168.25,37.01l24.57.33M191.88,40.49l-23.17.03M188.5,43.57l-16.83.08M175.14,50.22h9.21M170.19,53.69l17.7-1.14M191.69,56.16l-23.54.31M167.51,59.53l25.43-.13"/>
    <g>
      <text class="cls-5" transform="translate(-2.38 70.41)"><tspan x="0" y="0">NODE</tspan></text>
      <text class="cls-3" transform="translate(-2.38 70.41)"><tspan x="0" y="0">NODE</tspan></text>
      <text class="cls-4" transform="translate(-2.38 70.41)"><tspan x="0" y="0">NODE</tspan></text>
    </g>
  </g>
  <g>
    <text class="cls-1" transform="translate(3.1 87.01)"><tspan class="cls-12" x="0" y="0">N</tspan><tspan class="cls-9" x="13.59" y="0">O</tspan><tspan class="cls-12" x="27.22" y="0">AA OCEAN DNA EXP</tspan><tspan class="cls-10" x="207.32" y="0">L</tspan><tspan class="cls-12" x="216.72" y="0">ORER</tspan></text>
    <text class="cls-2" transform="translate(3.1 87.01)"><tspan class="cls-12" x="0" y="0">N</tspan><tspan class="cls-9" x="13.59" y="0">O</tspan><tspan class="cls-12" x="27.22" y="0">AA OCEAN DNA EXP</tspan><tspan class="cls-10" x="207.32" y="0">L</tspan><tspan class="cls-12" x="216.72" y="0">ORER</tspan></text>
  </g>
</svg>