<svg width="822" height="769" xmlns="http://www.w3.org/2000/svg" xmlns:xlink="http://www.w3.org/1999/xlink"
	xml:space="preserve" overflow="hidden">
	<defs>
		<clipPath id="clip0">
			<rect x="98" y="314" width="822" height="769" />
		</clipPath>
	</defs>
	<g clip-path="url(#clip0)" transform="translate(-98 -314)">
		<path
			d="M151.772 314 154.134 314C146.492 330.863 135.654 344.479 131.903 366.589 145.519 371.835 159.136 377.082 172.891 382.328 173.308 378.081 173.308 378.206 175.254 375.957 175.67 377.331 176.087 378.705 176.365 380.205L176.365 385.451C183.451 388.199 190.399 391.072 197.485 393.82 197.902 392.071 198.318 390.322 198.596 388.574 207.489 398.567 216.104 404.188 231.387 408.56 232.638 403.439 230.137 404.937 234.861 403.314 234.722 408.061 232.777 408.685 237.223 411.683 240.836 413.932 245.699 416.43 248.895 415.93 248.339 402.19 252.368 370.461 264.04 366.464L264.04 367.463C254.869 377.207 246.532 410.184 254.73 418.928 257.231 422.3 278.351 432.044 285.159 434.667 285.576 432.544 285.993 430.42 286.271 428.297 287.105 428.671 287.799 429.046 288.633 429.296L288.633 437.665C292.94 438.664 297.247 439.788 301.555 440.788 301.555 437.54 300.443 439.289 302.666 436.541 303.778 443.536 305.445 444.161 310.864 447.034 315.866 445.535 313.643 444.535 317.95 444.91 319.34 457.652 329.483 454.279 335.457 450.156 335.874 453.279 336.291 456.527 336.569 459.65 339.348 460.4 341.988 461.024 344.767 461.774 344.906 457.776 342.405 459.65 347.129 457.527 347.268 462.148 346.99 462.773 349.491 464.896 352.548 466.271 355.743 467.645 358.8 469.144 359.217 467.02 359.634 464.896 359.912 462.773 368.387 473.016 374.501 480.636 389.229 483.759 390.758 481.885 388.951 482.135 391.591 482.759 395.621 487.631 397.844 490.504 405.625 492.253 406.32 488.38 406.042 489.13 407.987 487.006L407.987 492.253C409.098 493.627 410.349 495.001 411.46 496.5 418.825 497.249 414.795 497.874 420.77 495.501 422.159 506.368 440.639 508.367 448.837 514.487 450.365 513.488 451.893 512.364 453.561 511.365 454.534 519.359 461.064 521.608 468.706 522.982 469.678 517.735 467.872 519.859 472.179 517.735L472.179 526.104C476.487 527.479 480.794 528.853 485.101 530.352 485.101 527.104 483.99 528.853 486.213 526.104L487.325 526.104C487.325 533.974 490.381 535.973 497.884 539.845L498.996 539.845C500.802 535.473 497.467 537.347 502.47 535.598 502.748 543.967 505.248 544.842 510.667 548.214 514.558 546.59 513.446 545.966 516.503 543.967 516.503 554.46 521.088 556.084 528.175 559.706 528.591 557.583 529.008 555.46 529.286 553.336 531.092 555.709 531.37 554.585 530.397 557.583 532.065 561.955 532.76 562.704 536.233 567.076 537.762 567.826 539.29 568.45 540.958 569.2 542.347 567.451 542.486 566.452 544.431 564.953 544.848 568.076 545.265 571.323 545.543 574.446 548.599 576.195 551.795 577.944 554.852 579.693L554.852 573.322C561.243 579.943 559.993 587.812 567.774 593.309 570.136 590.81 567.635 591.685 571.247 592.309 568.885 600.304 573.887 604.926 577.083 611.296L578.195 611.296C579.306 609.547 580.557 607.799 581.668 606.05 580.14 619.416 581.946 631.158 589.866 636.529 615.849 636.279 615.154 652.893 623.769 668.132 633.495 669.881 639.608 672.13 650.724 671.255 650.307 673.004 649.89 674.753 649.612 676.501 661.145 679.999 664.063 684.621 678.93 683.871 678.513 684.621 678.096 685.245 677.818 685.995 675.873 686.37 673.928 686.744 671.983 686.994 673.511 688.743 675.039 690.492 676.707 692.241 688.378 696.488 687.128 701.234 703.662 700.61 703.245 701.359 702.829 701.984 702.551 702.733 700.189 703.483 697.826 704.108 695.465 704.857 701.3 712.352 705.608 716.849 717.696 716.474 717.279 717.223 716.862 717.848 716.584 718.598 715.056 718.972 713.527 719.347 711.86 719.597 712.277 720.596 712.694 721.72 712.972 722.72 719.224 727.217 720.891 729.465 731.729 727.966 729.089 730.589 729.923 730.215 724.643 731.089 726.588 734.586 728.534 738.084 730.479 741.582 733.953 741.957 737.565 742.331 741.039 742.581L741.039 743.581 733.953 743.581C734.786 744.955 735.481 746.328 736.314 747.828 739.232 754.573 743.123 756.447 752.71 757.321 751.876 758.071 751.182 758.695 750.348 759.445 746.874 759.445 747.986 759.195 744.512 760.444 745.624 761.443 746.874 762.567 747.986 763.567 749.653 767.314 749.097 766.94 752.71 768.813 755.767 769.188 758.962 769.563 762.019 769.813 761.602 770.562 761.186 771.187 760.908 771.936 758.129 772.311 755.489 772.686 752.71 772.935 754.655 776.058 756.601 779.306 758.546 782.429 762.019 783.178 765.632 783.803 769.105 784.552 768.688 785.302 768.272 785.926 767.994 786.676L760.908 786.676C761.324 787.675 761.741 788.799 762.019 789.799 766.882 792.922 770.634 793.546 777.164 796.17L777.164 797.169 767.855 797.169C768.688 798.918 769.384 800.666 770.217 802.415 772.996 803.789 775.636 805.163 778.415 806.662L778.415 807.662C774.108 808.286 774.941 808.036 772.579 809.785 773.413 810.535 774.108 811.159 774.941 811.909 777.164 815.906 777.581 816.031 783.139 817.155 781.61 817.904 780.082 818.529 778.415 819.279L778.415 822.402C779.943 823.775 781.471 825.15 783.139 826.648 787.863 827.648 792.448 828.772 797.172 829.771L797.172 831.895C792.448 831.146 787.863 830.521 783.139 829.771L783.139 832.894C784.806 836.517 785.362 839.265 788.975 841.263 791.337 842.263 793.699 843.387 796.061 844.386 795.227 844.761 794.532 845.136 793.699 845.386 789.531 845.511 790.642 843.762 790.225 847.509 791.059 850.632 791.753 853.88 792.587 857.003 795.366 857.752 798.006 858.377 800.785 859.126 800.368 859.501 799.951 859.876 799.673 860.126 796.894 860.375 798.284 859.876 794.949 861.125L794.949 862.124C798.423 866.996 798.84 868.37 804.258 871.618 800.368 875.615 801.618 876.365 803.147 883.235 806.204 884.234 809.4 885.358 812.456 886.358L812.456 887.357C806.621 888.231 808.983 886.607 806.621 890.48 809.538 895.726 811.623 895.476 815.93 898.849 810.65 899.349 812.179 899.599 811.206 900.973 810.789 901.347 810.372 901.722 810.094 901.972 812.873 905.969 815.652 906.344 819.404 909.342 813.846 910.841 816.486 908.593 814.68 913.589 815.513 914.588 816.208 915.713 817.041 916.712 819.404 918.96 821.905 919.335 826.351 919.835L826.351 920.834C823.989 921.209 821.627 921.583 819.265 921.833 823.433 970.675 857.058 934.7 892.906 948.19 871.647 948.44 851.778 950.314 828.574 950.314 829.547 957.059 830.797 959.183 839.134 959.807 838.717 960.557 838.3 961.181 838.022 961.931 833.854 962.68 834.688 962.68 832.187 964.054 835.243 969.301 835.382 972.674 843.858 973.548 843.441 974.297 843.024 974.922 842.746 975.672 841.218 976.046 839.689 976.421 838.022 976.671 841.913 987.538 842.469 994.034 852.056 999.78 850.527 1000.53 848.999 1001.15 847.332 1001.9 848.443 1005.78 849.694 1009.65 850.805 1013.52 853.584 1013.9 856.224 1014.27 859.003 1014.52 858.586 1015.27 858.169 1015.89 857.891 1016.64 852.333 1018.14 854.974 1015.89 853.167 1020.89 856.363 1028.26 857.891 1030.88 863.727 1035.63 859.003 1037 861.087 1036.5 860.254 1038.75 860.67 1043.13 860.393 1045.25 868.451 1046.12 868.034 1046.87 867.618 1047.5 867.34 1048.25 865.812 1048.62 864.283 1049 862.616 1049.25 864.144 1053.74 865.673 1058.36 867.34 1062.86 881.651 1067.36 905.272 1060.86 920 1065.98 909.023 1066.98 875.399 1066.36 869.702 1070.23 870.813 1074.73 870.813 1073.85 867.34 1076.6 866.228 1075.85 864.978 1075.23 863.866 1074.48 862.338 1069.98 860.809 1065.36 859.142 1060.86 856.78 1060.49 854.418 1060.11 852.056 1059.86 838.578 1065.36 787.307 1080.85 768.966 1075.6 781.471 1073.85 793.977 1072.11 806.343 1070.36 823.989 1066.73 839.968 1060.24 855.529 1055.62 854.418 1050.37 853.167 1045.12 852.056 1039.88 851.222 1039.5 850.527 1039.13 849.694 1038.88 840.523 1041.88 818.153 1049 808.705 1046.25 823.016 1040.63 840.801 1042.88 849.694 1032.63 810.789 933.201 782.722 826.648 715.195 748.702 693.102 723.219 664.202 692.865 621.685 686.62 617.655 697.487 607.929 706.731 601.815 718.223 604.177 720.721 606.54 723.095 608.902 725.593 610.847 725.218 612.792 724.843 614.737 724.594 615.571 721.845 616.266 718.972 617.099 716.224 620.156 717.973 617.516 718.098 620.573 717.223 621.685 715.475 622.935 713.726 624.047 711.977 624.463 712.352 624.88 712.727 625.158 712.976 622.935 728.84 629.188 718.847 613.487 735.086 632.522 761.069 648.084 771.936 661.423 804.539L657.949 804.539C656.421 792.547 649.474 784.428 645.027 775.059L642.665 775.059 642.665 776.058C643.777 779.556 645.027 783.053 646.139 786.551L645.027 786.551C644.194 786.176 643.499 785.802 642.665 785.552 639.886 778.931 637.246 772.186 634.468 765.565L632.105 765.565 632.105 766.565C633.634 770.812 635.162 774.934 636.829 779.181 635.301 778.432 633.773 777.807 632.105 777.057 629.743 770.687 627.381 764.441 625.019 758.071L622.657 758.071 622.657 759.07C623.491 763.942 624.185 768.938 625.019 773.81L623.908 773.81C621.963 763.317 617.238 754.198 613.348 744.33L610.986 744.33C611.82 747.453 612.514 750.701 613.348 753.823 609.735 751.575 609.18 748.202 606.262 745.454 607.929 749.826 608.346 750.701 603.9 752.824 603.761 748.452 603.622 748.827 598.064 746.454 608.068 776.933 593.062 806.662 584.03 832.644 583.197 832.27 582.502 831.895 581.668 831.645 581.113 828.397 582.919 830.896 580.557 828.522 578.889 834.143 576.666 839.64 571.247 842.138 579.028 827.023 599.037 793.671 590.7 774.684 590.283 774.184 590.005 774.559 589.866 775.434 589.032 794.296 581.529 821.777 568.885 836.892L567.774 836.892 567.774 836.517C574.721 819.528 595.702 773.685 587.643 756.572L584.169 756.572C583.753 757.571 583.336 758.695 583.058 759.694 572.081 782.054 576.25 813.658 556.102 829.147L554.991 829.147C555.824 828.148 556.519 827.023 557.353 826.024 562.216 812.283 571.386 801.541 573.749 785.052 573.61 784.053 573.193 784.178 572.637 785.052 572.637 785.802 572.22 787.051 572.081 787.675 569.302 796.045 566.523 806.162 557.492 810.285 566.106 793.047 571.525 776.183 578.611 755.572 576.25 753.199 576.944 753.574 572.776 752.449 571.664 754.198 570.414 755.947 569.302 757.696 562.077 774.684 563.745 810.035 538.873 817.655 539.707 816.905 540.401 816.281 541.235 815.531 546.515 805.413 555.685 798.793 558.742 786.051 559.437 783.678 556.519 785.802 555.269 788.175 552.212 797.543 545.543 805.038 536.511 809.16 543.597 799.667 550.545 790.174 557.631 780.805 557.214 780.43 556.241 779.556 555.547 780.305 554.435 781.055 553.74 781.305 552.629 781.929 549.711 790.548 544.153 795.42 536.511 799.667 535.4 800.167 534.149 800.417 533.037 799.667 532.76 799.417 532.76 799.167 533.037 798.668 539.707 793.047 545.82 789.299 550.545 781.804L547.071 781.804C537.762 789.799 528.313 797.918 519.004 806.038 483.851 845.76 423.688 882.735 363.524 898.599 356.299 900.473 357.828 895.476 351.853 897.6 345.461 916.837 340.598 905.22 329.622 912.34 307.807 926.455 255.981 976.921 255.981 976.921L233.194 1041.75C233.194 1041.75 226.941 1061.86 225.83 1061.74 222.495 1061.49 226.802 1052.99 226.802 1052.99L245.143 997.656 242.086 1000.15 208.045 1064.74C208.045 1064.74 205.682 1067.61 204.571 1067.23 202.487 1066.36 208.739 1058.99 214.158 1048 223.745 1028.64 237.501 1001.15 239.307 996.532 239.585 995.908 237.223 996.532 237.223 996.532L182.756 1066.11C182.756 1066.11 178.449 1070.86 176.921 1069.98 175.67 1069.11 179.005 1064.74 179.005 1064.74L234.861 995.283 234.861 994.284C234.861 994.284 195.817 1027.64 183.868 1039.5 172.891 1050.37 142.74 1085.6 139.961 1082.85 137.738 1080.72 146.631 1072.98 146.631 1072.98L182.756 1033.63 221.939 995.283 220.828 994.284 164.277 1039.38C164.277 1039.38 151.216 1051.99 148.715 1050 147.048 1048.75 164.277 1033.88 164.277 1033.88L213.047 993.659 234.305 978.545C234.305 978.545 246.393 969.176 246.532 964.804 246.532 963.43 244.448 960.932 243.059 960.557 242.225 960.432 218.465 973.173 218.465 973.173L136.627 1036.26C136.627 1036.26 130.652 1038.38 129.957 1037 128.568 1034.38 138.989 1028.88 138.989 1028.88L207.906 976.421 175.254 996.532 114.812 1036.38C114.812 1036.38 106.198 1043.13 104.253 1040.88 101.474 1037.63 109.672 1033.13 109.672 1033.13L200.542 973.548 199.569 972.424 108.56 1015.27C108.56 1015.27 101.89 1017.27 101.335 1015.77 100.779 1014.39 106.198 1012.15 106.198 1012.15L198.596 967.927 122.593 996.282C122.593 996.282 111.478 1000.4 110.366 999.03 108.56 996.532 119.537 992.41 119.537 992.41 119.537 992.41 211.796 960.932 214.297 958.433 214.992 957.809 210.685 956.809 210.685 956.809L135.515 973.298C135.515 973.298 128.151 975.297 127.595 973.548 127.04 971.799 134.959 970.3 134.959 970.3L202.348 952.188 240.974 943.818C240.974 943.818 283.075 906.719 304.195 888.106 308.085 882.86 302.944 877.863 308.919 873.366 316.005 870.868 322.952 868.495 330.038 865.997L330.038 864.997C327.676 863.623 325.315 862.249 322.952 860.75 321.007 849.758 334.624 843.512 339.348 833.394 358.383 792.047 372.556 776.933 403.68 748.202 416.879 736.086 426.328 721.221 443.418 712.477 442.167 708.605 441.334 711.228 443.418 707.23 452.032 701.609 460.508 695.988 469.123 690.367 452.449 692.366 443.973 703.108 431.747 709.354 434.526 706.231 437.165 702.983 439.944 699.86 449.253 695.364 458.702 690.742 468.011 686.245 467.594 685.87 467.178 685.495 466.9 685.245 451.338 690.117 437.721 697.612 423.549 700.985L423.549 698.861C438.972 693.989 449.115 685.37 469.123 683.122 453.978 672.754 425.077 690.617 415.351 694.739 415.768 693.74 416.185 692.615 416.462 691.616 414.1 692.366 411.738 692.99 409.376 693.74 410.21 692.74 410.905 691.616 411.738 690.617 423.549 686.37 433.831 678.625 448.003 675.877 464.399 672.629 484.546 682.498 492.465 678 491.354 674.128 490.104 670.256 488.992 666.383 462.036 659.763 437.721 680.249 415.351 683.247 415.768 682.498 416.185 681.873 416.462 681.123 428.968 676.626 441.473 672.005 453.839 667.508L453.839 666.508C437.86 669.256 421.881 672.13 405.903 674.878 406.32 674.128 406.736 673.503 407.014 672.754 423.826 669.631 440.5 666.383 457.312 663.261L457.312 662.261C443.001 662.511 409.098 672.254 404.652 668.632 422.159 665.134 439.805 661.637 457.312 658.139 441.889 652.143 413.267 669.256 403.541 662.386 410.905 660.637 418.408 658.888 425.772 657.14 424.938 656.765 424.243 656.39 423.41 656.14 414.517 656.89 405.486 657.515 396.454 658.264 397.288 657.515 397.983 656.89 398.816 656.14 406.181 656.89 409.237 652.018 424.521 651.893 458.146 651.644 485.796 656.265 512.196 656.14 509.834 654.766 507.471 653.392 505.109 651.893 501.219 652.143 491.771 652.393 488.714 650.894 493.021 650.519 497.329 650.144 501.636 649.895 496.078 644.523 483.434 646.147 475.931 642.525 483.295 642.9 490.798 643.274 498.162 643.524 491.632 638.402 470.79 636.404 468.984 630.908 477.598 633.406 486.074 635.779 494.689 638.278L494.689 637.278C484.962 628.534 460.369 627.16 452.588 617.292L453.7 617.292C465.371 621.539 477.043 625.661 488.853 629.908L488.853 628.909C481.211 621.414 462.314 618.166 457.312 608.923 463.148 611.421 468.984 613.794 474.819 616.293 472.874 614.169 470.929 612.046 468.984 609.922 459.674 608.423 446.197 602.677 442.028 596.307 450.643 600.179 459.119 604.051 467.733 607.924L467.733 606.924C456.479 600.304 445.085 593.558 433.831 586.938 461.342 593.184 498.162 618.791 508.722 640.526 509.556 640.151 510.25 639.777 511.084 639.527 511.084 633.406 509.973 629.284 514.558 625.786L514.558 632.157C517.892 628.909 518.309 627.535 523.867 625.786L523.867 626.785C521.505 630.283 519.143 633.781 516.781 637.278 520.255 643.774 522.339 649.895 528.452 654.142 539.707 648.146 551.1 642.275 562.355 636.279 544.709 577.694 494.55 559.706 445.363 530.102 361.023 479.386 265.29 430.545 170.53 391.322 144.825 408.81 130.791 439.414 98 451.656 98.8335 450.281 99.5282 448.908 100.362 447.408 129.402 435.417 146.631 409.809 165.805 388.574 165.388 387.824 164.972 387.2 164.694 386.45 158.024 383.952 151.494 381.578 144.825 379.08 139.545 386.2 131.069 396.068 120.231 398.067 120.648 397.318 121.065 396.693 121.343 395.944 129.541 392.696 138.85 384.576 141.212 375.957 131.069 372.46 120.926 368.962 110.783 365.465L110.783 363.341C111.617 362.592 112.311 361.967 113.145 361.217 118.286 362.592 123.288 363.966 128.429 365.465 131.486 344.229 140.656 329.239 151.772 314"
			fill="#64ABDC" fill-rule="evenodd" />
	</g>
</svg>