<svg width="632" height="561" xmlns="http://www.w3.org/2000/svg" xmlns:xlink="http://www.w3.org/1999/xlink"
	xml:space="preserve" overflow="hidden">
	<defs>
		<clipPath id="clip0">
			<rect x="811" y="570" width="632" height="561" />
		</clipPath>
	</defs>
	<g clip-path="url(#clip0)" transform="translate(-811 -570)">
		<path
			d="M1218.12 1000.92C1235.57 989.538 1238.02 973.686 1234.96 956.148 1233.83 949.867 1232.61 943.5 1231.43 937.345L1232.37 936.333C1246.86 942.362 1238.44 957.413 1246.86 965.17L1297.66 955.136C1296.44 937.978 1295.97 922.927 1293.95 908.087 1293.05 901.637 1288.87 895.44 1286.23 889.284L1286.66 889.875C1286.09 883.256 1291.36 882.792 1296.72 881.443 1310.27 878.239 1313.42 873.011 1312.01 860.363 1310.6 847.716 1309.8 834.099 1308.67 820.144 1316.62 822.884 1314.98 831.147 1317.19 836.797 1319.21 843.136 1320.47 849.651 1320.95 856.232 1321.8 862.893 1322.03 869.554 1322.64 877.859 1350.87 862.218 1362.01 842.109 1358.67 814.115 1356.84 798.77 1360.37 783.002 1360.37 767.403 1360.37 753.997 1364.41 739.284 1346.92 730.304 1339.29 726.383 1341.69 720.438 1347.34 715 1361.38 722.735 1369.55 736.76 1368.6 751.509 1368.04 764.579 1367.89 777.676 1368.18 790.801 1368.59 796.084 1369.39 801.337 1370.58 806.527L1387.28 809.014 1398 801.552 1393.81 818.626 1393.81 818.247 1368.27 816.856C1366.67 845.903 1357.73 871.662 1326.97 885.785 1321.8 901.932 1338.07 925.499 1305.71 931.654 1305.47 956.572 1311.57 981.212 1323.54 1003.7 1326.12 1008.47 1328.24 1013.53 1330.36 1018.46L1330.92 1018.08 1322.45 1021.24C1316.53 1014.88 1322.03 1003.75 1309.85 1001.51 1313.52 995.103 1299.12 992.405 1305.57 984.648 1306.55 983.425 1299.31 976.806 1295.83 972.675L1300.02 962.135 1294.98 961.629 1296.16 972.675C1281.25 967.868 1267.04 971.367 1253.82 976.89 1248.44 980.107 1244.28 984.728 1241.92 990.128 1232.51 1007.29 1230.82 1009.52 1210.31 1022 1204.81 1011.97 1218.4 1008.05 1218.4 1000.46ZM1307.87 922.969C1321.98 910.785 1322.74 905.853 1314.22 887.851 1296.49 897.252 1302.56 909.858 1307.87 922.969Z"
			fill="#64ABDC" fill-rule="evenodd" />
		<path
			d="M1206.75 911.37 1197.4 918C1186.61 904.867 1188.05 897.983 1206 878.009 1186.51 872.054 1182.4 855.162 1181.14 841.226 1179.88 827.291 1187.59 811.666 1191.84 797.223 1193.7 792.166 1195.93 787.228 1198.52 782.442L1198.1 782.907C1201.93 775.939 1205.25 768.38 1217.21 771.04L1214.36 764.452 1213.9 765.002C1233.9 770.28 1247.07 758.54 1261.33 749.545 1264.41 747.603 1267.35 745.323 1270.35 743.38L1269.83 743C1267.12 758.329 1254.6 765.508 1240.58 771.336 1228.24 776.488 1213.8 778.262 1205.62 789.706 1204.36 791.522 1203.57 793.591 1201.28 798.152L1279.5 790.551C1281.84 803.642 1281.84 803.642 1257.82 803.726L1255.39 816.142C1253.38 817.156 1252.31 818.085 1251.09 818.211 1221.75 821.125 1221.79 821.209 1225.02 847.477 1225.19 852.79 1224.98 858.107 1224.41 863.397 1224.41 867.916 1224.41 872.392 1224.41 880.289L1258.52 869.309 1256.93 892.62C1268.2 884.723 1277.07 884.174 1286 890.593L1285.58 890.002C1281.51 892.367 1277.96 896.125 1273.29 896.885 1259.78 899.292 1245.72 899.588 1232.45 902.671 1220.81 905.331 1213.99 903.135 1211.93 891.058 1202.59 897.857 1199.18 903.727 1205.86 912.173ZM1198.1 809.596C1193.43 825.348 1186.23 841.1 1199.46 856.514 1202.08 859.42 1206.11 860.994 1210.25 860.737 1213.83 858.764 1216.13 855.349 1216.42 851.573 1216.07 845.773 1215.1 840.016 1213.52 834.385 1211.14 821.167 1216.09 814.199 1229.88 811.032 1232.96 810.314 1236 809.301 1239.22 808.414L1238.38 804.782ZM1247.35 891.016 1247.82 888.482 1231.23 888.482 1231.23 891.016Z"
			fill="#64ABDC" fill-rule="evenodd" />
		<path
			d="M1130.32 829.051C1124.44 840.615 1111.41 847.915 1097.23 847.589 1087.21 847.886 1087.16 847.293 1090.19 834.892 1104.37 838.066 1113.4 832.776 1119.16 820.629 1121.62 815.465 1128.38 812.418 1134.48 807 1148 838.828 1158.82 868.286 1143.55 900.114 1134.1 919.245 1116.8 927.794 1098.13 922.419 1080.21 917.255 1077.66 913.954 1076.15 897.49 1074.97 884.242 1080.87 873.619 1094.2 869.429 1108.72 864.9 1124.46 863.546 1139.63 860.964 1134.9 873.661 1122.14 873.661 1110.84 876.835 1086.5 883.184 1083.29 888.517 1090.56 909.298 1102.15 914.716 1114.81 916.409 1123.65 907.944 1137.17 895.247 1145.63 879.671 1139.25 860.921 1144.29 849.698 1140.44 836.845 1129.8 829.39L1135.61 818.512 1130.32 817.412Z"
			fill="#64ABDC" fill-rule="evenodd" />
		<path
			d="M1148.87 639.66 1180.84 622C1183.13 628.828 1181.45 632.874 1167.97 642.568 1159.4 648.764 1155.42 654.707 1165.39 664.106L1186.5 655.676 1190.76 661.745C1195.82 655.76 1201.25 649.86 1209.49 656.772L1210 656.435 1197.6 667.941 1197.97 667.52 1161.98 670.554C1161.03 672.031 1160.2 673.567 1159.5 675.149 1148.07 716.285 1133.98 727.454 1087.27 732.217 1068.17 734.156 1062.42 738.876 1058.44 755.736L1053.1 757 1048 737.485C1058.86 725.136 1073.46 724.588 1086.48 720.626 1092.09 718.814 1090.55 726.611 1098.6 723.787 1112.64 718.94 1125.42 714.978 1133.61 703.219 1144.57 688.928 1150.74 672.105 1151.4 654.749L1137.36 656.308 1137.87 656.645C1140.96 650.576 1152.43 648.89 1149.15 639.407Z"
			fill="#64ABDC" fill-rule="evenodd" />
		<path
			d="M1226.34 671.338C1240.47 691.861 1237.88 698.11 1206.78 720.111 1218.42 730.922 1230.67 723.11 1241.6 720.576 1250.18 718.549 1257.44 712.13 1265.73 708.794 1274.02 705.458 1283.73 702.544 1292.73 699.504 1294.61 711.117 1287.21 716.691 1255.74 727.67 1238.35 733.751 1220.87 737.383 1199.62 727.67L1213.99 765 1214.46 764.451C1189.11 749.038 1186.95 723.279 1210.03 706.809 1220.31 699.504 1229.64 692.747 1223.32 679.066 1222.43 677.123 1225.44 673.745 1226.67 671Z"
			fill="#64ABDC" fill-rule="evenodd" />
		<path
			d="M1372.65 917.999C1362.82 921.884 1363.24 913.481 1360 909.553 1347.62 894.351 1347.91 876.488 1361.5 867.958 1367.22 864.579 1373.61 862.214 1380.32 860.99 1382.16 860.61 1385.03 865.213 1388.04 868.169L1394.91 862.595 1398.53 872.223 1401.07 870.872C1412.41 864.918 1429.07 865.889 1432.64 849.757 1434.81 839.961 1432.36 833.879 1421.07 828.643 1422.48 826.616 1423.7 824.421 1425.3 822.689 1426.25 821.962 1427.33 821.39 1428.5 821 1447.75 840.974 1447.79 857.19 1428.88 871.674 1421.44 877.824 1411.2 880.455 1401.26 878.768 1394.15 877.387 1386.89 876.707 1379.62 876.741 1366.4 877.375 1361.41 884.934 1365.22 896.336 1367.67 903.641 1369.93 911.073 1372 918.421Z"
			fill="#64ABDC" fill-rule="evenodd" />
		<path
			d="M1137.76 657 1142 665.372C1133.05 672.74 1124.11 680.149 1114.88 687.349 1096.26 702.923 1070.87 710.425 1045.47 707.861 1037.55 707.08 1029.57 706.716 1021.6 706.772 1008.51 706.772 996.079 707.819 993.018 722.889 992.5 725.4 987.086 727.075 984.26 729 977.951 723.768 993.677 719.205 982 715.647 993.913 698.233 1010.25 696.14 1032.43 698.903 1063.84 703.027 1095.58 693.534 1117.8 673.367 1124.3 667.716 1131.55 662.693 1138.42 657.335Z"
			fill="#64ABDC" fill-rule="evenodd" />
		<path
			d="M1199 782.657C1175.06 796.02 1153.49 787.6 1132.02 775.41 1134.29 799.078 1134.29 799.078 1122.56 808 1128.37 793.59 1126.29 782.406 1115.7 772.897 1114.32 771.682 1115.41 768.373 1115.36 766.069L1116.12 765.189 1131.54 761C1147.91 783.537 1171.8 779.683 1197.06 775.159L1198.53 783.201Z"
			fill="#64ABDC" fill-rule="evenodd" />
		<path
			d="M1306.92 800.064C1311.34 798.333 1315.76 794.996 1319.15 795.655 1325.35 797.592 1331.24 800.209 1336.69 803.442L1343.84 797.015 1350 813 1285 805.419 1289.37 791 1293.04 791.535 1295.63 801.505 1304.28 792.483Z"
			fill="#64ABDC" fill-rule="evenodd" />
		<path
			d="M1083.66 600.945C1094.48 594.277 1096.79 599.778 1096.22 608.988L1105.34 602.237 1107.23 607.905C1115.19 607.687 1123.17 607.826 1131.12 608.322 1131.88 611.402 1132.26 614.546 1132.25 617.698 1133.09 618.334 1133.7 619.175 1134 620.115 1123.85 626.075 1116.39 615.948 1106.71 616.489 1100.72 616.182 1094.98 614.262 1090.27 610.989 1087.01 608.988 1085.55 604.821 1083 601.487Z"
			fill="#64ABDC" fill-rule="evenodd" />
		<path
			d="M1053 757.259 1058.32 755.891C1060.73 754.848 1063.35 754.206 1066.03 754 1068.04 754 1069.86 757.299 1071.73 757.218 1081.59 756.937 1091.44 756.052 1102 755.327L1102 768 1102 767.598C1088.73 766.391 1075.37 765.586 1062.25 763.575 1058.98 763.213 1056.13 759.511 1053 757.259Z"
			fill="#64ABDC" fill-rule="evenodd" />
		<path
			d="M1330.39 1018.38C1336.51 1028.73 1343.05 1038.96 1348.47 1049.65 1349.6 1052.97 1348.89 1056.6 1346.57 1059.36 1344.86 1060.85 1339.8 1059.36 1334.24 1058.76L1343.51 1045.41 1329 1046.95C1329.65 1036.82 1330.25 1027.41 1330.9 1018Z"
			fill="#64ABDC" fill-rule="evenodd" />
		<path
			d="M1218.49 1000.29C1212.74 1003.82 1207.47 1007.95 1202.82 1012.59 1198.73 1017.74 1195.53 1018.62 1188 1013.93L1220.94 983 1224 984.172 1217.84 1000.92Z"
			fill="#64ABDC" fill-rule="evenodd" />
		<path
			d="M1000.68 749.617C989.664 751.853 987.821 743.879 983 736.961L995.619 730C1003.04 736.244 1005.07 742.403 1000.77 749.701Z"
			fill="#64ABDC" fill-rule="evenodd" />
		<path d="M1372.51 918 1372 918.452 1394.58 942.793 1395 942.793 1379.48 946Z" fill="#64ABDC"
			fill-rule="evenodd" />
		<path
			d="M1133.77 620.717C1133.47 619.776 1132.85 618.934 1132 618.296 1138.6 612.119 1143.67 615.667 1148.16 620.425 1153.99 626.644 1157.29 633.197 1149.07 640L1149.5 639.75Z"
			fill="#64ABDC" fill-rule="evenodd" />
		<path d="M1285.68 851.253 1298 875C1282.42 868.137 1279.89 861.653 1286.22 851Z" fill="#64ABDC"
			fill-rule="evenodd" />
		<path
			d="M1084.25 600.677 1083.56 601.224C1073.65 604.589 1073.26 604.042 1074.54 591.844L1074 592.349C1084.75 588.647 1086.23 592.937 1084.25 600.677Z"
			fill="#64ABDC" fill-rule="evenodd" />
		<path d="M1217.94 936.646 1207 925.047 1213.9 920C1229.94 922.612 1217.1 931.201 1217.7 937Z" fill="#64ABDC"
			fill-rule="evenodd" />
		<path d="M1393 819.018 1407.59 808 1411 809.726 1405.06 823 1405.41 822.602 1393.19 818.752Z" fill="#64ABDC"
			fill-rule="evenodd" />
		<path d="M1399.85 954.751 1389 952.883 1396.04 943 1395.6 943 1400 955Z" fill="#64ABDC" fill-rule="evenodd" />
		<path
			d="M1232.53 936.569 1231.7 937.737C1226.2 943.66 1221.88 940.477 1218 936.408L1218 936.891C1220.6 935.401 1222.91 933.789 1225.85 932.5 1231.7 929.68 1234.1 930.727 1232.53 936.569Z"
			fill="#64ABDC" fill-rule="evenodd" />
		<path
			d="M1285.77 850.538C1269.2 851.841 1278.97 841.546 1277.9 836L1277.48 836.462C1284.03 838.46 1287.55 844.874 1285.34 850.788 1285.31 850.859 1285.28 850.93 1285.26 851Z"
			fill="#64ABDC" fill-rule="evenodd" />
		<path d="M1116 764.504 1115.3 765.329 1103 767.607 1103 768 1111.2 757Z" fill="#64ABDC" fill-rule="evenodd" />
		<path d="M1411 953.57C1416.29 960.337 1416.29 960.337 1411.28 968L1411.28 953Z" fill="#64ABDC"
			fill-rule="evenodd" />
		<path
			d="M1399.14 954.35 1399.14 954.692 1410.67 952.598 1411 952C1409.78 954.601 1408.18 957.045 1406.24 959.265 1404.03 960.557 1401.57 961.483 1399 962Z"
			fill="#64ABDC" fill-rule="evenodd" />
		<path d="M1214 920.51 1207.29 925C1197.66 920.469 1207.29 915.653 1207.02 911L1206.35 911.571Z" fill="#64ABDC"
			fill-rule="evenodd" />
		<path d="M1001 749 1001 749 1010 751.405 1005.24 756Z" fill="#64ABDC" fill-rule="evenodd" />
		<path d="M1258 830 1261.9 818C1267.9 823.96 1267.9 823.96 1258 830Z" fill="#64ABDC" fill-rule="evenodd" />
		<path
			d="M1066 585.434C1075.68 581.125 1074.61 587.417 1074.47 592.544L1075 592.027 1066.53 595 1066.53 585.047Z"
			fill="#64ABDC" fill-rule="evenodd" />
		<path
			d="M1210 657.34C1220.33 662.354 1207.05 667.071 1210 672L1210.57 671.448 1198.38 667.836 1198 668.261 1210.76 657Z"
			fill="#64ABDC" fill-rule="evenodd" />
		<path d="M1405 822.534 1421 814C1417.5 825.379 1417.5 825.379 1405.33 822.134Z" fill="#64ABDC"
			fill-rule="evenodd" />
		<path d="M1270.35 743 1261 732 1279 738.075 1269.65 742.631Z" fill="#64ABDC" fill-rule="evenodd" />
		<path d="M1278 835.557 1269 834.913 1272.74 830 1277.78 836Z" fill="#64ABDC" fill-rule="evenodd" />
		<path
			d="M1066.82 585.609C1056.94 585.609 1058.81 579.13 1058.41 574L1058 574.478C1063.36 574.823 1067.37 578.83 1066.97 583.427 1066.9 584.312 1066.65 585.181 1066.26 586Z"
			fill="#64ABDC" fill-rule="evenodd" />
		<path d="M1210 672 1221.24 665 1226.67 671.908 1227 671.31 1210.57 671.31Z" fill="#64ABDC"
			fill-rule="evenodd" />
		<path d="M1059 574.526 1051 574.914 1052.85 570 1058.55 575Z" fill="#64ABDC" fill-rule="evenodd" />
		<path
			d="M901.037 1011.59C897.134 1004.2 893.094 996.849 889.363 989.371 887.824 986.894 886.978 984.115 886.898 981.276 887.041 978.515 889.637 976.381 892.697 976.51 894.534 976.587 896.209 977.482 897.169 978.897 900.875 982.892 906.29 985.274 912.061 985.447 919.763 986.374 926.713 995.304 933.081 1001.51 936.025 1004.42 936.504 1009.21 938.695 1012.92 940.053 1014.56 941.681 1016.01 943.522 1017.21 943.956 1015.46 944.208 1013.68 944.276 1011.9 944.07 1008.81 943.077 1005.53 943.043 1002.35 943.043 993.079 943.043 983.81 943.488 974.54 943.909 968.117 944.813 961.727 946.193 955.414 947.117 951.119 946.193 949.235 941.092 949.636 929.178 950.285 916.819 948.091 906.206 955.538 904.598 956.65 901.174 955.723 898.606 955.754 899.36 953.344 899.291 949.575 901.037 948.74 906.462 945.383 912.483 942.885 918.839 941.356 926.262 940.365 933.785 940.147 941.263 940.707 946.603 940.861 948.315 938.976 949.821 934.527 951.927 926.596 955.478 919.036 960.332 912.157 965.879 904.453 976.984 901.784 986.042 905.977 994.669 909.871 998.503 917.595 997.1 927.792 996.542 930.648 996.461 933.564 996.86 936.443 997.75 940.954 1000.87 943.302 1006.14 941.387 1019.25 936.875 1031.61 931.345 1040.03 920.561 1041.09 918.925 1042.6 917.563 1044.41 916.606 1046.28 915.861 1048.4 915.861 1050.27 916.606 1051.16 917.131 1050.98 920.036 1050.27 921.581 1046.09 931.994 1036.06 937.463 1026.3 942.901 1020 946.67 1012.4 948.709 1005.56 952.047 1003.47 953.066 1002.44 955.909 1000.9 957.917 1003 959.112 1005.32 959.959 1007.75 960.42 1016.75 960.605 1026.95 957.855 1029.9 969.689 1029.9 970.153 1033.32 970.493 1034.76 970.122 1048.45 966.661 1062.15 963.479 1075.53 959.308 1082.82 957.021 1089.22 952.602 1096.45 950.038 1099.12 949.049 1102.78 950.285 1106 950.501 1104.9 953.004 1104.56 956.249 1102.58 957.763 1098.67 960.655 1094.29 962.989 1089.6 964.684 1079.33 968.577 1069.06 971.636 1059.03 975.869 1056.05 977.657 1054.15 980.589 1053.89 983.81 1053.89 992.183 1056.6 999.259 1067.35 1002.35 1071.91 1004.16 1075.98 1006.84 1079.3 1010.2 1083.78 1014 1084.6 1023.61 1080.29 1027.1 1077.58 1028.64 1074.18 1028.83 1071.29 1027.59 1066.08 1023.7 1061.26 1019.4 1056.91 1014.74 1049.41 1007.39 1041.78 1006.98 1033.97 1014.09 1030.2 1017.52 1026.88 1021.38 1023.22 1024.87 1018.09 1029.82 1012.06 1031.67 1004.87 1028.58 999.325 1026.17 995.046 1027.38 989.294 1029.91 980.154 1033.93 970.191 1038.34 959.065 1032.17 952.218 1028.3 946.33 1031.67 944.926 1038.75 944.649 1040.67 944.249 1042.58 943.728 1044.46 942.632 1047.74 941.297 1050.95 940.064 1054.2 945.24 1054.28 950.415 1053.99 955.539 1053.33 964.953 1051.48 974.094 1048.6 983.509 1046.66 994.467 1044.51 1005.92 1046.3 1015.45 1051.63 1023.03 1055.09 1027.21 1062.62 1025.72 1070.17 1023.56 1079.75 1018.87 1084.38 1009.39 1085.87 999.714 1086.74 990.64 1081.5 987.48 1073.2 985.84 1068.31 983.803 1063.54 981.386 1058.92 980.941 1058.06 978.339 1058.09 976.73 1057.72 976.492 1059.1 976.492 1060.51 976.73 1061.89 978.406 1065.33 979.658 1068.92 980.462 1072.61 980.078 1075.3 978.208 1077.63 975.497 1078.79 973.854 1079.29 970.02 1076.78 968.65 1074.8 963.413 1066.28 947.596 1060.41 938.866 1065.54 935.237 1067.67 933.697 1073.38 932.259 1077.89 931.653 1081.67 931.276 1085.48 931.129 1089.3 930.574 1095.34 924.945 1099.98 918.223 1099.92 910.143 1100.67 906.138 1097.27 903.708 1091.34 902.112 1088.1 901.206 1084.62 901.037 1081.08 901.482 1066.06 889.569 1059.29 878.168 1052.09 877.484 1051.66 875.635 1051.57 875.464 1051.85 874.882 1052.87 874.129 1054.47 874.642 1055.22 875.989 1057.12 877.638 1058.84 879.538 1060.31 893.517 1071.41 900.016 1088.31 896.655 1104.84 896.191 1106.41 896.074 1108.05 896.313 1109.66 897.682 1113.77 898.606 1118.53 901.619 1121.43 902.886 1122.64 908.945 1119.85 912.814 1118.83 916.682 1117.82 921.201 1111.7 925.344 1117.01 926.371 1118.34 921.92 1125.63 918.497 1126.93 911.65 1129.53 902.783 1132.28 896.484 1130.36 891.349 1128.78 888.439 1120.66 885.049 1115.16 884.228 1113.83 885.392 1111.42 885.837 1109.53 891.177 1086.36 878.202 1070.6 859.716 1057.25 853.074 1052.47 849.446 1053.61 845.679 1060.75 844.432 1063.41 843.447 1066.17 842.735 1069 839.119 1080.56 831.185 1090.63 820.278 1097.52 818.223 1098.94 814.149 1097.95 811 1098.1 812.164 1095.75 812.609 1092.66 814.423 1091.18 823.57 1084.35 829.654 1074.75 831.541 1064.18 833.455 1058.4 837.104 1053.21 842.085 1049.19 845.679 1045.88 846.536 1044.4 843.078 1040.72 841.297 1038.87 841.606 1035.44 840.955 1032.69 844.176 1032.7 847.38 1033.12 850.472 1033.93 853.111 1035.46 855.526 1037.29 857.662 1039.36 859.29 1040.47 860.981 1041.5 862.728 1042.45 862.67 1040.75 862.453 1039.06 862.078 1037.39 857.593 1023.7 864.235 1011.43 878.408 1007.63 885.759 1005.27 893.955 1007.6 898.469 1013.35ZM930.239 1025.18C930.445 1023.7 930.753 1022.25 930.821 1020.79 930.821 1020.55 929.657 1020.3 929.075 1020.05L930.239 1025.21C927.778 1025.2 925.333 1025.58 923.016 1026.33 909.322 1033.4 899.051 1029.97 889.705 1019.5 886.823 1015.92 881.277 1015.14 877.318 1017.74 875.536 1018.91 874.301 1020.64 873.855 1022.59 872.592 1028.18 872.78 1033.97 874.402 1039.49 875.019 1041.65 880.53 1042.76 883.851 1044.28 887.172 1045.79 890.972 1047.37 894.464 1048.88 906.104 1054.2 911.376 1062.94 911.581 1074.56 911.579 1078.08 912.156 1081.57 913.293 1084.94 913.909 1086.61 916.717 1087.66 918.394 1089.02 919.216 1087.35 921.099 1085.4 920.688 1084.04 917.641 1074.25 928.836 1066.15 924.522 1056.24 924.214 1055.52 925.617 1053.86 926.645 1053.15 937.497 1044.68 933.663 1034.92 930.239 1025.18ZM1034.55 979.916C1029.9 980.318 1026.03 980.813 1022.13 980.967 1008.74 981.554 1009.29 981.492 1010.04 993.635 1010.55 1001.51 1016.89 1009.55 1010.04 1017.46 1011.38 1018.38 1013.09 1020.27 1013.87 1019.99 1015.76 1019.14 1017.4 1017.89 1018.63 1016.35 1024.66 1009.67 1030.07 1002.44 1040.71 1000.9 1042.15 1000.68 1043.8 996.941 1043.86 994.717 1043.86 991.627 1042.26 988.537 1042.12 985.447 1041.91 980.133 1038.97 978.773 1034.55 979.916ZM970.807 948.586C964.714 950.285 959.236 949.636 958.243 956.032 956.463 967.444 954.751 978.856 953.108 990.267 953.107 991.489 953.291 992.706 953.656 993.882 955.162 993.419 957.079 993.326 958.106 992.43 966.133 984.62 976.627 979.227 988.164 976.981 989.26 976.796 990.15 975.467 991.109 974.664 989.705 973.922 988.199 972.377 986.932 972.532 980.599 973.335 974.402 975.035 968.069 975.406 965.227 975.591 962.215 973.459 959.27 972.316 961.427 970.462 963.276 967.712 965.843 966.97 971.903 965.271 978.339 964.684 984.57 963.386 989.226 962.397 991.177 959.956 986.521 956.99 981.865 954.024 976.079 951.336 970.807 948.586ZM981.899 1009.46C993.299 1009.46 994.635 1007.79 989.363 999.722 986.316 995.057 989.602 993.882 992.786 992.986 995.97 992.091 1000.15 992.183 998.024 988.136 996.063 986.12 993.074 985.182 990.15 985.664 981.606 989.588 973.391 994.07 965.57 999.073 963.592 1001.2 962.947 1004.09 963.858 1006.74 965.594 1008.94 968.33 1010.34 971.321 1010.54 974.884 1010.58 978.438 1010.22 981.899 1009.46ZM985.699 926.772C986.352 921.343 982.005 916.464 975.99 915.876 975.803 915.857 975.616 915.843 975.429 915.834 967.589 915.309 962.317 922.013 961.735 934.589 961.05 946.145 973.204 942.437 977.894 942.406 990.321 942.375 979.64 930.449 985.699 926.772ZM910.383 994.748C910.383 1002.9 910.554 1010.97 910.691 1019 910.847 1019.84 911.148 1020.66 911.581 1021.41 916.203 1018.69 924.145 1016.41 924.625 1013.22 925.344 1008.53 921.201 1002.84 918.052 998.27 916.545 996.2 912.198 995.582 910.349 994.84ZM1013.33 1071.04C1013.33 1062.23 1007.34 1057.35 999.873 1057.69 998.353 1058.2 997.211 1059.36 996.826 1060.78 996.518 1068.1 1002.75 1077.8 1007.34 1076.66 1010.28 1076.1 1012.4 1072.12 1013.33 1071.04ZM968.377 1020.3C965.566 1020.06 962.743 1019.96 959.921 1019.99 958.959 1020.11 958.126 1020.66 957.695 1021.44 957.695 1022.09 958.448 1023.58 958.996 1023.61 965.843 1024.13 972.69 1024.6 979.742 1024.63 980.77 1024.63 981.865 1022.4 982.892 1021.2 981.181 1020.33 979.469 1018.66 977.791 1018.76 974.61 1019.03 971.46 1019.55 968.377 1020.3Z"
			fill="#64ABDC" fill-rule="evenodd" />
	</g>
</svg>