<?xml version="1.0" encoding="UTF-8"?>
<svg id="Layer_2" data-name="Layer 2" xmlns="http://www.w3.org/2000/svg" xmlns:xlink="http://www.w3.org/1999/xlink" viewBox="0 0 423.43 168.09">
  <defs>
    <style>
      .cls-1 {
        clip-path: url(#clippath-2);
      }

      .cls-2, .cls-3, .cls-4, .cls-5 {
        stroke-width: 0px;
      }

      .cls-2, .cls-3, .cls-5 {
        fill: none;
      }

      .cls-6 {
        clip-path: url(#clippath-1);
      }

      .cls-3, .cls-5 {
        clip-rule: evenodd;
      }

      .cls-4 {
        fill: #233D7F;
      }

      .cls-5 {
        clip-path: url(#clippath);
      }
    </style>
    <clipPath id="clippath">
      <polygon class="cls-3" points="0 168.09 423.31 168.09 423.31 0 0 0 0 168.09 0 168.09"/>
    </clipPath>
    <clipPath id="clippath-1">
      <polygon class="cls-5" points="0 0 423.31 0 423.31 168.09 0 168.09 0 0 0 0"/>
    </clipPath>
    <clipPath id="clippath-2">
      <polygon class="cls-2" points="0 168.09 423.31 168.09 423.31 0 0 0 0 168.09 0 168.09"/>
    </clipPath>
  </defs>
  <g id="Layer_1-2" data-name="Layer 1">
    <g class="cls-6">
      <g class="cls-1">
        <path class="cls-4" d="M177.09,96.19c.85-1.5,18.16-54.31,18.16-54.31,0,0,6.1-3.1,18.75.15,10.81,2.79,15.96,6.24,15.96,6.24l-4.8,56.13"/>
        <path class="cls-4" d="M419.8,119.51c-9.19-16.33-18.31-33.36-26.1-48.55-3.79-7.5-9.88-13.32-14.73-12.97-4.36.3-7.5,1.5-6.88,8.88,1.39,18,4.96,36.3,7.18,54.46.79,9.21,13.18,17.35,26.31,14.76,12.88-2.56,19-9.18,14.22-16.57h0ZM404.97,133.68c-9,2.17-18.1-5.08-19.09-13.15-2.39-16-4.89-31.95-7.5-47.85-1.27-8.13.66-8.88,3.99-9.37,3.33-.49,5.49,4.77,8.65,11.34,7.21,15,15.61,31.62,22.5,45,3.61,6.54.28,11.91-8.55,14.04h0Z"/>
        <polygon class="cls-4" points="419.95 111.83 405.39 111.83 404.99 106.55 383.6 106.55 383.6 125.67 397.62 125.67 406.46 125.67 423.37 120.09 419.95 111.83 419.95 111.83 419.95 111.83"/>
        <path class="cls-4" d="M173.43,2.11c-2.61,11.17-5.53,22.27-8.47,33.39l-4.5,16.62-2.29,8.29c-.84,2.76-1.14,5.62-3.51,8.02l-1.75-.42c-.79-3.13.48-5.79,1.2-8.56l2.34-8.26,4.86-16.5c3.36-11.01,6.7-22,10.38-33l1.75.42Z"/>
        <path class="cls-4" d="M330.5,119.7s-1.42-18.54-22.81-18.54c-19.69,0-33.31,2.41-37.5-2.4-6.94-7.87-19.36-6.09-19.36-6.09h-74.21v-28.29h-28.36l-11.43-7.5-37.75,7.8,5.79,8.73v19.26H1.5l27.82,27h0l50.17,48.3h325.48s5.79-6.69,11.13-20.77c3.29-8.79,5.75-17.88,7.33-27.13l-92.93-.36ZM116.02,74.02c0,2.02-1.64,3.66-3.66,3.66s-3.66-1.64-3.66-3.66v-4.66c0-2.02,1.64-3.66,3.66-3.66s3.66,1.64,3.66,3.66v4.66ZM125.68,74.02c0,2.02-1.64,3.66-3.66,3.66s-3.66-1.64-3.66-3.66v-4.66c0-2.02,1.64-3.66,3.66-3.66s3.66,1.64,3.66,3.66v4.66ZM135.34,74.02c-.13,2.03-1.88,3.56-3.9,3.43-1.84-.12-3.31-1.59-3.43-3.43v-4.66c.13-2.03,1.88-3.56,3.9-3.43,1.84.12,3.31,1.59,3.43,3.43v4.66Z"/>
        <path class="cls-4" d="M136.09,46.99l25.5,2.58s-1.23-.62-1.23-3.07,1.23-2.46,1.23-2.46l-25.5-2.58c-.79.79-1.23,1.88-1.21,3-.04.99.41,1.94,1.21,2.53h0Z"/>
        <path class="cls-4" d="M183.72,47.2l-25.24,3.24s1.21-.78,1.21-3.87-1.21-3.07-1.21-3.07l25.24-3.25c.81,1.07,1.23,2.37,1.21,3.7.1,1.21-.35,2.4-1.21,3.25h0Z"/>
        <path class="cls-4" d="M148.67,26.17l19.32,2.52s-.93-.6-.93-3,.93-2.35.93-2.35l-19.32-2.46c-.61.81-.94,1.8-.91,2.82-.08.92.26,1.83.91,2.47h0Z"/>
        <path class="cls-4" d="M185.01,26.56l-19.27,2.47s.93-.58.93-3-.93-2.37-.93-2.37l19.27-2.47c.62.81.95,1.81.93,2.83.1.94-.25,1.88-.93,2.53h0Z"/>
        <path class="cls-4" d="M162.42,7.33l9.24,1.86s-.43-.44-.43-2.13.43-1.68.43-1.68l-9.24-1.78c-.32.63-.47,1.32-.45,2.02-.04.6.12,1.2.45,1.71h0Z"/>
        <path class="cls-4" d="M178.86,7.37l-7.99,1.81s.37-.42.37-2.11-.37-1.69-.37-1.69l7.99-1.77c.28.64.41,1.33.39,2.02.04.61-.09,1.21-.39,1.74h0Z"/>
        <path class="cls-4" d="M276.54,35.11l-1.18-1.38c.56-1.48.85-3.05.85-4.63.05-7.21-5.75-13.09-12.96-13.14-7.21-.05-13.09,5.75-13.14,12.96-.01,1.65.29,3.28.88,4.81l-1.2,1.38,10.23,11.86v54h6.3v-54l10.21-11.86h0Z"/>
      </g>
    </g>
  </g>
</svg>