<?xml version="1.0" encoding="UTF-8"?>
<svg id="Line__x26__Text" xmlns="http://www.w3.org/2000/svg" version="1.1" viewBox="0 0 588.4 82.4">
  <!-- Generator: Adobe Illustrator 29.0.1, SVG Export Plug-In . SVG Version: 2.1.0 Build 192)  -->
  <defs>
    <style>
      .st0 {
        fill: #5d1725;
      }

      .st1 {
        fill: #fefefe;
      }

      .st2 {
        fill: #fff;
        stroke: #231f20;
        stroke-miterlimit: 10;
        stroke-width: .5px;
      }
    </style>
  </defs>
  <g>
    <path class="st1" d="M107.3,43.8l4.3-9.5c-7.1-5.3-17.8-9.6-17.8-9.6l3.7-6v-10.6h-27.2l-9.3,14.5c-1.2,0-2.4,0-3.7,0s-2.4,0-3.7,0l-9.3-14.5h-27.2v10.5l3.7,6s-10.7,4.3-17.8,9.6l4.3,9.5L1,63.9s5.5-3.8,12.2-7.8v8.9s3.6-2.3,7-4l-3,4.8v10.8h29.9v-22.3l10.3,16.3,10.3-16.3v22.3h29.9v-10.8l-3.2-4.8c3.5,1.7,7,4,7,4v-8.9c6.7,4,12.2,7.8,12.2,7.8l-6.3-20.1Z"/>
    <path class="st0" d="M105.2,43.5l4.8,15.4c-3.6-2.3-7.3-4.5-10.6-6.1v8.5c-2.5-1.5-5.1-2.8-7.9-4v3.6l3.7,5.7v7.8h-25.2v-23.2c-.9-.1-1.8-.2-2.8-.3l-9.8,15.5-9.8-15.5c-.9,0-1.8.2-2.8.3v23.2h-25.4v-7.8l3.7-5.7v-3.7c-2.7,1.2-5.4,2.5-7.9,4v-8.5c-3.3,1.7-7,3.8-10.6,6.2l4.8-15.4-4-8.7c5.4-3.5,11.4-6.6,17.6-9v-1.9l-3.7-6v-7.6h23.9l9.2,14.3c1.7-.1,3.3-.2,5-.2s3.3.1,5,.2l9.2-14.3h23.7v7.6l-3.7,6v1.9c6.2,2.4,12.2,5.4,17.6,9l-4,8.7Z"/>
    <polygon class="st1" points="54.5 37.6 57.8 37.6 56.2 33.1 54.5 37.6"/>
    <path class="st1" d="M18,36.9v20c12-6,26.1-9.4,39.3-9.4s27.3,3.4,39.3,9.4v-20c-12-6.2-26.1-9.7-39.3-9.7-13.1,0-27.3,3.5-39.3,9.7ZM34.6,36.6c-1,.3-2,.6-3.1.9v-1.1l-4.3,1.6v3.3s4-1.5,5.7-2l1.8,1.2v4.7l-2.5,3.2c-1.9.6-3.8,1.3-5.7,2-.7-.5-1.5-.9-2.2-1.4v-1.8c1-.4,2-.8,3-1.2v1.7l.4-.2c1.2-.5,4-1.4,4-1.4v-4.2s-4.1,1.4-5.8,2l-1.7-1v-3.9l2.4-3.3c1.9-.7,3.8-1.4,5.7-2,.8.5,1.6,1,2.3,1.5v1.4ZM44.8,33.4v9.6l1.2-.2v2.5c-1.9.2-3.7.6-5.6.9v-2.5l1.2-.2v-9.6l-2.6.5v1.7c-.8.2-1.6.4-2.4.6v-4.2c4.4-1.1,8.8-1.8,13.3-2.2v4.2c-.8,0-1.6.2-2.5.2v-1.7l-2.6.4ZM78.2,44.8l1.2.3v-9.6l-1.2-.3v-2.5c3.9,1,7.9,2.4,11.6,4v3.4c-1-.4-2-.8-3-1.2v-.9l-4.4-1.5v3.5s2.8.9,4.1,1.4v2.2c-1.2-.5-4.1-1.4-4.1-1.4v3.8l4.4,1.5v-1.1c1,.4,2,.8,3,1.2v3.6c-3.8-1.6-7.7-2.9-11.6-3.9v-2.5ZM62.7,30.2c4.5.3,8.9,1,13.3,2v4.2c-.8-.2-1.6-.4-2.4-.5v-1.7l-2.7-.5v9.5l1.2.2v2.5c-1.9-.3-3.7-.6-5.6-.8v-2.5h1.2c0,0,0-9.5,0-9.5l-2.5-.2v1.7c-.8,0-1.6,0-2.5-.2v-4.2ZM62.2,42.2s.9,0,1.3,0v2.5c-1.8,0-3.6-.2-5.4-.2v-2.5h1.2l-.8-2.3h-4.8c0,0-.8,2.4-.8,2.4h1.2v2.5c-1.7,0-3.4.2-5.1.3v-2.5h1.2c0,0,4.4-12.4,4.4-12.4h3.5l4.1,12.1Z"/>
    <path class="st1" d="M23.2,28.6c-5.2,2-9.9,4.4-14.4,7.2l3.4,7.5-3.1,9.9c2-1.2,4.1-2.2,6.2-3.3v-14.6c2.4-1.2,5.9-2.9,7.9-3.7v-3Z"/>
    <path class="st1" d="M102.5,43.3l3.4-7.5c-4.5-2.8-9.2-5.2-14.4-7.2v2.9c2,.8,5.5,2.5,7.9,3.7v14.7c2.1,1,4.2,2.1,6.2,3.3l-3.1-9.9Z"/>
  </g>
  <g>
    <g>
      <g>
        <path class="st2" d="M164,31.8v-8.8l-4.2,7.7-4.2-7.7v8.8l1.3.9v2.6h-6.7v-2.6l1.3-.9v-12.5l-1.3-.9v-2.6h5.8l3.7,6.9,3.9-6.9h5.7v2.6l-1.3.9v12.5l1.3.9v2.6h-6.7v-2.6l1.4-.9Z"/>
        <path class="st2" d="M179.6,35.3h-7.2v-2.6l1.4-.9v-12.4l-1.4-.9v-2.6h7.2v2.6l-1.4.9v12.5l1.4.9v2.5Z"/>
        <path class="st2" d="M195.3,18.7l.3.3v2.2h-4.4v-.9l-.5-.5h-3l-.5.5v2.8h0c0,.1,6.1.1,6.1.1l2.1,2.2.3.3v6.3l-3,3.3h-6.9l-2.7-3.1-.2-.3v-2.7h4.4v1.5l.6.7h2.9l.6-.7v-3.8h-.1c0,0-6.2,0-6.2,0l-2.2-2.6v-5.3l2.6-2.9.3-.3h7l2.5,3Z"/>
        <path class="st2" d="M211.2,18.7l.3.3v2.2h-4.4v-.9l-.5-.5h-3l-.5.5v2.8h.1c0,0,6.1,0,6.1,0l2.1,2.2.3.3v6.3l-3,3.3h-6.9l-2.7-3.1-.2-.3v-2.7h4.4v1.5l.6.7h2.9l.6-.7v-3.8h-.1c0,0-6.2,0-6.2,0l-2.2-2.6v-5.3l2.6-2.9.3-.3h7l2.4,3Z"/>
        <path class="st2" d="M221.7,35.3h-7.2v-2.6l1.4-.9v-12.4l-1.4-.9v-2.6h7.2v2.6l-1.4.9v12.5l1.4.9v2.5Z"/>
        <path class="st2" d="M237.4,18.7l.3.3v2.2h-4.5v-.9l-.5-.5h-3l-.5.5v2.8h0c0,.1,6.1.1,6.1.1l2.1,2.2.3.3v6.3l-3,3.3h-6.9l-2.7-3.1-.2-.3v-2.7h4.4v1.5l.6.7h2.9l.6-.7v-3.8h-.1c0,0-6.2,0-6.2,0l-2.2-2.6v-5.3l2.6-2.9.3-.3h7l2.6,3Z"/>
        <path class="st2" d="M253.3,18.7l.3.3v2.2h-4.4v-.9l-.5-.5h-3l-.5.5v2.8h0c0,.1,6.1.1,6.1.1l2.1,2.2.3.3v6.3l-3,3.3h-6.9l-2.7-3.1-.2-.3v-2.7h4.4v1.5l.6.7h2.9l.6-.7v-3.8h-.1c0,0-6.2,0-6.2,0l-2.2-2.6v-5.3l2.6-2.9.3-.3h7l2.5,3Z"/>
        <path class="st2" d="M263.8,35.3h-7.2v-2.6l1.4-.9v-12.4l-1.4-.9v-2.6h7.2v2.6l-1.4.9v12.5l1.4.9v2.5Z"/>
        <path class="st2" d="M280.6,18.8l.3.3v6.3l-2.7,2.9-.3.3h-5.3v3.2l1.5.9v2.6h-7.2v-2.6l1.4-.9v-12.4l-1.4-.9v-2.6h11.1l2.6,2.9ZM276.5,20.3l-.5-.5h-3.4v4.8h3.4l.5-.5v-3.8Z"/>
        <path class="st2" d="M297.2,18.8l.3.3v6.3l-2.7,2.9-.3.3h-5.3v3.2l1.5.9v2.6h-7.2v-2.6l1.4-.9v-12.4l-1.4-.9v-2.6h11.1l2.6,2.9ZM293.1,20.3l-.5-.5h-3.4v4.8h3.4l.5-.5v-3.8Z"/>
        <path class="st2" d="M307.1,35.3h-7.2v-2.6l1.4-.9v-12.4l-1.4-.9v-2.6h7.2v2.6l-1.4.9v12.5l1.4.9v2.5Z"/>
        <path class="st2" d="M333.2,18.7l.3.3v2.2h-4.4v-.9l-.5-.5h-3l-.5.5v2.8h.1c0,0,6.1,0,6.1,0l2.1,2.2.3.3v6.3l-3,3.3h-6.9l-2.7-3.1-.2-.3v-2.7h4.4v1.5l.6.7h2.9l.6-.7v-3.8h-.1c0,0-6.2,0-6.2,0l-2.2-2.6v-5.3l2.6-2.9.3-.3h7l2.4,3Z"/>
        <path class="st2" d="M335.6,15.8h15.7v6.2h-3.6v-2.1h-2v12l1.4.9v2.6h-7.1v-2.6l1.4-.9v-12h-2v2.1h-3.6v-6.2h-.2Z"/>
        <path class="st2" d="M366.6,32.8v2.6h-6.8v-2.6l1.3-.8-.8-2.7h-4.5l-.9,2.7,1.3.8v2.6h-6.5v-2.5l1.3-1,4.7-15.3.2-.7h4.5l4.7,15.9,1.5,1ZM359.2,25.6l-1.1-3.9-1.2,3.9h2.3Z"/>
        <path class="st2" d="M364.9,15.8h15.7v6.2h-3.6v-2.1h-2v12l1.4.9v2.6h-7.2v-2.6l1.4-.9v-12h-2v2.1h-3.6v-6.2h0Z"/>
        <path class="st2" d="M382.8,15.8h14.2v6.1h-4.4v-2.1h-4.1v3.7h4.7v3.7h-4.7v4.1h4.1v-1.4h4.4v5.4h-14.2v-2.6l1.4-.9v-12.4l-1.4-.9v-2.7Z"/>
        <path class="st2" d="M419.3,15.8h6.9v2.7l-1.6.9v12.7l-2.7,2.9-.3.3h-6.9l-3-3.2v-12.7l-1.4-.9v-2.6h6.6v2.5l-.7.8v11.6l.5.5h3l.5-.5v-11.6l-.9-.9v-2.5Z"/>
        <path class="st2" d="M435.9,32.7v2.6h-6.6v-2.6l1.4-.9v-12.4l-1.4-.9v-2.6h5.9l5.7,10.8v-7.3l-1.2-.9v-2.6h6.4v2.6l-1.3.9v16h-4.1l-6.2-11.9v8.3l1.4.9Z"/>
        <path class="st2" d="M456.4,35.3h-7.2v-2.6l1.4-.9v-12.4l-1.4-.9v-2.6h7.2v2.6l-1.4.9v12.5l1.4.9v2.5Z"/>
        <path class="st2" d="M468.5,15.8h7.4v2.7l-2,1-4.7,15.8h-3.8l-4.9-15.9-1.8-1v-2.7h7.1v2.6l-1.2.8,2.6,8.5,2.6-8.5-1.3-.8v-2.5h0Z"/>
        <path class="st2" d="M478,15.8h14.2v6.1h-4.4v-2.1h-4.1v3.7h4.7v3.7h-4.7v4.1h4.1v-1.4h4.4v5.4h-14.2v-2.6l1.4-.9v-12.4l-1.4-.9v-2.7Z"/>
        <path class="st2" d="M510.9,32.8v2.5h-6.5v-2.6l.9-.7-2-4.5h-2.2v4.3l1,.9v2.5h-6.7v-2.6l1.3-.9v-12.4l-1.3-.9v-2.6h11l3,3.2v5.4l-2,2.1,2.3,5.2,1.2,1.1ZM505,20.3l-.6-.5h-3.3v3.8h3.2l.6-.7v-2.6h0Z"/>
        <path class="st2" d="M526,18.7l.3.3v2.2h-4.4v-.9l-.5-.5h-3l-.5.5v2.8h0c0,0,6.1,0,6.1,0l2.1,2.2.3.3v6.3l-3,3.3h-6.9l-2.7-3.1-.2-.3v-2.7h4.4v1.5l.6.7h2.9l.6-.7v-3.8h0c0,0-6.2,0-6.2,0l-2.2-2.6v-5.3l2.6-2.9.3-.3h7l2.4,3Z"/>
        <path class="st2" d="M536.5,35.3h-7.2v-2.6l1.4-.9v-12.4l-1.4-.9v-2.6h7.2v2.6l-1.4.9v12.5l1.4.9v2.5Z"/>
        <path class="st2" d="M538.7,15.8h15.7v6.2h-3.6v-2.1h-2v12l1.4.9v2.6h-7.1v-2.6l1.4-.9v-12h-2v2.1h-3.6v-6.2h-.2Z"/>
        <path class="st2" d="M565.6,15.8h6.4v2.5l-1.3,1.1-4.3,8.5v3.9l1.4.9v2.6h-7.1v-2.6l1.3-.9v-3.9l-4.3-8.5-1.2-1.1v-2.5h6.3v2.5l-.8.7,2.2,4.2,2.1-4.2-.8-.7v-2.5h0Z"/>
      </g>
      <rect class="st2" x="129.6" y=".9" width="2.7" height="80.9"/>
      <g>
        <path class="st2" d="M150.5,62.5v-19.5l14.6,15.3v-14.5h2.1v19.6l-14.6-15.3v14.4h-2.1Z"/>
        <path class="st2" d="M171.6,53c0-2.6,1-4.8,2.9-6.7,1.9-1.9,4.2-2.8,6.9-2.8s5,1,6.9,2.9,2.9,4.2,2.9,6.8-1,5-2.9,6.9-4.2,2.8-6.9,2.8-4.5-.8-6.5-2.5c-2.3-2-3.3-4.4-3.3-7.4ZM173.7,53c0,2.3.8,4.2,2.4,5.7,1.5,1.4,3.3,2.1,5.2,2.1s4-.8,5.5-2.3,2.2-3.3,2.2-5.5-.7-4-2.2-5.5-3.3-2.3-5.4-2.3-3.9.7-5.4,2.2c-1.6,1.8-2.3,3.6-2.3,5.6Z"/>
        <path class="st2" d="M200.2,54.1l5.9,8.4h-2.5l-5.7-8.2h-.5v8.2h-2.1v-18.7h3c2.2,0,3.9.4,4.9,1.3,1.1,1,1.7,2.3,1.7,3.9s-.4,2.6-1.3,3.5c-.9,1-2,1.5-3.4,1.6ZM197.4,52.5h1.3c1.3,0,2.4-.3,3.1-.9.7-.6,1.1-1.4,1.1-2.5,0-2.2-1.4-3.3-4.2-3.3h-1.2v6.7h-.1Z"/>
        <path class="st2" d="M214.2,45.7v16.8h-2.1v-16.8h-4.5v-2h11.2v2h-4.6Z"/>
        <path class="st2" d="M224,51.4h9.6v-7.6h2.1v18.7h-2.1v-9.2h-9.6v9.2h-2.1v-18.7h2.1v7.6Z"/>
        <path class="st2" d="M250.6,45.7h-7.6v5.6h7.4v2h-7.4v7.3h7.6v2h-9.7v-18.8h9.7v1.9Z"/>
        <path class="st2" d="M259.8,54.1l5.9,8.4h-2.5l-5.7-8.2h-.5v8.2h-2.1v-18.7h3c2.2,0,3.9.4,4.9,1.3,1.1,1,1.7,2.3,1.7,3.9s-.4,2.6-1.3,3.5c-.9,1-2,1.5-3.4,1.6ZM257,52.5h1.3c1.3,0,2.4-.3,3.1-.9s1.1-1.4,1.1-2.5c0-2.2-1.4-3.3-4.2-3.3h-1.2v6.7h0Z"/>
        <path class="st2" d="M269.4,62.5v-19.5l14.6,15.3v-14.5h2.1v19.6l-14.6-15.3v14.4h-2.1Z"/>
        <path class="st2" d="M309,53.1h7.8v.5c0,2-.3,3.5-1,4.7-.8,1.4-1.9,2.5-3.3,3.3s-3,1.2-4.6,1.2c-2.6,0-4.9-.9-6.8-2.8s-2.8-4.2-2.8-6.8,1-5,2.9-6.9,4.2-2.8,6.9-2.8,3,.3,4.2,1c.6.3,1.2.7,1.8,1.2.6.5,1.2,1.1,1.8,1.9l-1.5,1.4c-.9-1.2-1.9-2.1-2.9-2.7-1-.6-2.2-.8-3.4-.8-2.1,0-3.9.8-5.4,2.3-1.5,1.5-2.2,3.4-2.2,5.5s.8,4.1,2.4,5.6c1.5,1.4,3.2,2.1,5.1,2.1s2-.2,3-.7,1.8-1.1,2.4-1.9c.7-.9,1.1-1.9,1.1-3.2h-5.6v-2.1h.1Z"/>
        <path class="st2" d="M323.2,43.8v11.5c0,1.1.1,1.9.2,2.5.1.5.4,1,.7,1.5.4.5.9.9,1.6,1.2.7.3,1.4.5,2.1.5s1.4-.2,2.1-.5,1.2-.7,1.6-1.2c.3-.4.6-.9.7-1.5s.2-1.4.2-2.5v-11.5h2.1v12c0,1.2-.1,2.1-.4,2.8-.3.8-.7,1.4-1.3,2.1-1.3,1.4-3,2.1-5,2.1s-3.7-.7-5-2.1c-.6-.6-1-1.3-1.3-2.1-.3-.7-.4-1.7-.4-2.8v-12h2.1Z"/>
        <path class="st2" d="M341.8,43.8v16.8h5.2v2h-7.3v-18.8h2.1Z"/>
        <path class="st2" d="M358.7,45.7h-6.5v5.6h6.2v2h-6.2v9.3h-2.1v-18.8h8.5v1.9h.1Z"/>
        <path class="st2" d="M372.9,43.8v18.7h-2.1v-18.7h2.1Z"/>
        <path class="st2" d="M378.1,62.5v-19.5l14.6,15.3v-14.5h2.1v19.6l-14.6-15.3v14.4h-2.1Z"/>
        <path class="st2" d="M410.1,46.4l-1.7,1.1c-.5-.8-.9-1.3-1.4-1.6s-1.1-.4-1.8-.4-1.6.3-2.2.8-.9,1.2-.9,2.1.9,2,2.6,2.8l1.8.8c1.5.7,2.6,1.4,3.2,2.2.7.8,1,1.8,1,3s-.6,3-1.7,4.1c-1.2,1.1-2.6,1.7-4.2,1.7s-2.7-.4-3.7-1.3c-1-.8-1.7-2-2-3.6l2-.6c.5,2.3,1.8,3.4,3.8,3.4s1.9-.4,2.7-1.1c.7-.7,1.1-1.6,1.1-2.6s-.2-1.4-.7-2c-.5-.5-1.3-1-2.5-1.6l-1.7-.8c-.7-.3-1.3-.6-1.7-.9-.5-.3-.9-.7-1.2-1-.6-.7-.9-1.6-.9-2.6s.5-2.5,1.5-3.5c1-.9,2.3-1.4,3.8-1.4,2.1,0,3.7,1,4.8,3Z"/>
        <path class="st2" d="M419.7,45.7v16.8h-2.1v-16.8h-4.5v-2h11.2v2h-4.6Z"/>
        <path class="st2" d="M429.6,43.8v18.7h-2.1v-18.7h2.1Z"/>
        <path class="st2" d="M439.4,45.7v16.8h-2.1v-16.8h-4.5v-2h11.2v2h-4.6Z"/>
        <path class="st2" d="M449.3,43.8v11.5c0,1.1.1,1.9.2,2.5.1.5.4,1,.7,1.5.4.5.9.9,1.6,1.2.7.3,1.4.5,2.1.5s1.4-.2,2.1-.5,1.2-.7,1.6-1.2c.3-.4.6-.9.7-1.5s.2-1.4.2-2.5v-11.5h2.1v12c0,1.2-.1,2.1-.4,2.8-.3.8-.7,1.4-1.3,2.1-1.3,1.4-3,2.1-5,2.1s-3.7-.7-5-2.1c-.6-.6-1-1.3-1.3-2.1-.3-.7-.4-1.7-.4-2.8v-12h2.1Z"/>
        <path class="st2" d="M470.4,45.7v16.8h-2.1v-16.8h-4.5v-2h11.2v2h-4.6Z"/>
        <path class="st2" d="M487.9,45.7h-7.7v5.6h7.4v2h-7.4v7.3h7.6v2h-9.7v-18.8h9.7v1.9h.1Z"/>
      </g>
    </g>
    <path class="st2" d="M579,28.5v1.1h-2.2v5.7h-1.4v-5.7h-2.2v-1.1h5.8ZM586.3,35.3l-.3-4v-1.9h0c-.2.6-.4,1.4-.6,2l-1.1,3.8h-1.4l-1.2-3.9c0-.5-.3-1.3-.5-1.9h0c0,.6,0,1.3,0,1.9l-.2,4h-1.3l.5-6.8h2l1.2,3.3c0,.5.3,1,.5,1.7h0c.2-.6.3-1.2.5-1.7l1.2-3.4h2l.5,6.8h-1.5Z"/>
  </g>
</svg>