<?xml version="1.0" encoding="UTF-8"?>
<svg id="Layer_1" xmlns="http://www.w3.org/2000/svg" version="1.1" viewBox="0 0 251.2 61.4">
  <!-- Generator: Adobe Illustrator 29.0.1, SVG Export Plug-In . SVG Version: 2.1.0 Build 192)  -->
  <defs>
    <style>
      .st0 {
        <!-- fill: #0072bc; -->
		fill: #fff; 
      }

      .st0, .st1, .st2, .st3 {
        stroke: #000;
        stroke-miterlimit: 10;
        stroke-width: .5px;
      }

      .st1 {
        <!-- fill: #83abdb; -->
		fill: #fff;
      }

      .st2 {
        fill: #fff;
      }

      .st3 {
        <!-- fill: #9edcf9; -->
		fill: #fff;		
      }
    </style>
  </defs>
  <path class="st2" d="M82.9,57.3v3.3h-13.7v-17.7h13.4v3.3h-9.3v3.8h8.2v3.2h-8.2v4.1h9.7Z"/>
  <path class="st2" d="M97.2,60.6l-4.3-6.2-4.2,6.2h-4.7l6.6-9-6.2-8.7h4.7l4.1,5.8,4-5.8h4.4l-6.2,8.6,6.6,9.2h-4.7Z"/>
  <path class="st2" d="M115.3,43.7c1.1.5,2,1.2,2.7,2.2,1.3,2.1,1.3,4.7,0,6.8-.7,1-1.6,1.8-2.7,2.2-1.3.5-2.7.8-4.1.8h-3.6v4.9h-4v-17.7h7.7c1.4,0,2.8.3,4,.8ZM113.8,51.6c1.3-1.2,1.3-3.3,0-4.5,0,0,0,0,0,0-.8-.6-1.8-.9-2.8-.8h-3.3v6.2h3.3c1,0,2-.2,2.8-.8h0Z"/>
  <path class="st2" d="M121.2,42.9h4.1v14.4h8.9v3.3h-13v-17.7Z"/>
  <path class="st2" d="M139.2,59.7c-4.4-2.5-6-8.1-3.5-12.5,0,0,0,0,0-.1.8-1.4,2-2.5,3.5-3.3,3.1-1.6,6.8-1.6,9.9,0,4.4,2.4,6.1,8,3.6,12.5,0,0,0,.2-.1.2-.8,1.4-2,2.5-3.5,3.3-3.1,1.6-6.8,1.6-9.9,0h0ZM147,56.7c.8-.5,1.5-1.2,2-2,1-1.8,1-4,0-5.9-.5-.8-1.2-1.5-2-2-1.8-1-3.9-1-5.7,0-.8.5-1.5,1.2-2,2-1,1.8-1,4,0,5.9.5.8,1.2,1.5,2,2,1.8,1,3.9,1,5.7,0Z"/>
  <path class="st2" d="M167,60.6l-3.4-4.9h-3.8v4.9h-4.1v-17.7h7.7c1.4,0,2.8.2,4.1.8,2.3.9,3.7,3.2,3.6,5.7,0,1.2-.3,2.4-1,3.4-.7,1-1.6,1.7-2.7,2.2l4,5.7h-4.4ZM166,47c-.8-.6-1.8-.9-2.8-.8h-3.3v6.2h3.3c1,0,2-.2,2.8-.8,1.3-1.2,1.3-3.3,0-4.5,0,0,0,0,0,0Z"/>
  <path class="st2" d="M185.9,56.8h-8.2l-1.6,3.8h-4.2l7.9-17.7h4l7.9,17.7h-4.3l-1.5-3.8ZM184.7,53.7l-2.8-6.8-2.8,6.8h5.6Z"/>
  <path class="st2" d="M194.6,46.2h-5.7v-3.3h15.4v3.3h-5.7v14.4h-4.1v-14.4Z"/>
  <path class="st2" d="M206.6,42.9h4.1v17.7h-4.1v-17.7Z"/>
  <path class="st2" d="M217.8,59.7c-4.4-2.5-6-8.1-3.5-12.5,0,0,0,0,0-.1.8-1.4,2-2.5,3.5-3.3,3.1-1.6,6.8-1.6,9.9,0,4.4,2.5,6,8,3.6,12.5,0,0,0,.1-.1.2-.8,1.4-2,2.5-3.5,3.3-3.1,1.6-6.8,1.6-9.9,0ZM225.6,56.7c.8-.5,1.5-1.2,2-2,1-1.8,1-4,0-5.9-.5-.8-1.2-1.5-2-2-1.8-1-3.9-1-5.7,0-.8.5-1.5,1.2-2,2-1,1.8-1,4,0,5.9.5.8,1.2,1.5,2,2,1.8,1,3.9,1,5.7,0Z"/>
  <path class="st2" d="M250.6,42.9v17.7h-3.4l-8.8-10.8v10.8h-4v-17.7h3.4l8.8,10.8v-10.8h4Z"/>
  <path class="st2" d="M152,8.3c.8.2,1.6.4,2.4.6l.5.2.7.3h.2l.7.3v-.3h0v-.7h17.3V1.2h-27v2.9h0v4.7c1.6-.6,3.4-.7,5.1-.5Z"/>
  <path class="st2" d="M241.1,1.2v1.5h0v10.5c2.3.3,4.8-.3,8.2-2,.5-.3.9-.6,1.4-.9V3.5h0V1.2h-9.5Z"/>
  <path class="st2" d="M72.7,11.3c1.1-.8,2.3-1.5,3.6-2.1,2-.8,4.1-1.2,6.2-1.2,1.6,0,3.1.2,4.6.7.4,0,.8,0,1.2,0,1.7,0,3.3.4,4.7,1.2,1.3.7,2.3,1.8,3.1,3,2.1.9,4.8,1.8,6.4,1.8,1.5,0,3-.2,4.5-.5-.4-1.8-1.1-3.5-2-5-1.7-2.7-4-4.9-6.8-6.4-6.2-3.1-13.4-3.1-19.6,0-2.8,1.5-5.2,3.7-6.8,6.4-.6,1-1.1,2.1-1.5,3.2,0,.2-.2.5-.2.8h0c1-.5,1.9-1.2,2.8-1.8Z"/>
  <path class="st2" d="M125.3,8.8c.3,0,.6.2.8.3,1.1-.3,2.2-.5,3.3-.5,3,0,5.8,1.3,7.7,3.6.1.1.2.3.4.4l.6-.6,5.5-5c-1.7-2.1-3.8-3.7-6.3-4.8-2.7-1.1-5.6-1.7-8.5-1.7-3.4,0-6.7.7-9.7,2.3-2.8,1.5-5.1,3.7-6.8,6.3-.6,1-1.1,2.1-1.5,3.3h0c4.2-2.2,8.9-5.2,14.2-3.7Z"/>
  <path class="st2" d="M233.1,10h.2c0,0-7.3-8.8-7.3-8.8h-8v9.5l.6-.3c4.6-2.5,9.1-3.5,14.6-.4Z"/>
  <path class="st2" d="M190.6,7.8h0c5.1,0,7.8.7,11.5,3l1,.6c.8.4,1.6.7,2.4,1l-4.2-9.4h0l-.8-1.8h-9.6l-3,6.8c.9-.2,1.7-.2,2.6-.2h0Z"/>
  <path class="st3" d="M122.4,11.5c.6-.7,1.3-1.2,2.1-1.7.5-.3,1.1-.5,1.7-.7-.3,0-.5-.2-.8-.3-5.4-1.5-10,1.5-14.2,3.6h0c-.2.7-.4,1.5-.6,2.2h0c-.2,1.2-.4,2.5-.3,3.7,0,2.8.6,5.5,1.8,8,3.6.4,7.2,0,10.6-1-.5-.6-1-1.2-1.3-1.8-1.6-3.2-1.6-7,0-10.3.4-.6.8-1.2,1.3-1.8Z"/>
  <polygon class="st3" points="107.1 15.4 106.9 14.2 107.1 15.4 107.1 15.4"/>
  <path class="st3" d="M107.1,15.4h0l-.2-1.2c-1.5.3-3,.5-4.5.5-1.6,0-4.2-.9-6.4-1.8l.2.2h0v.2c1,1.6,1.4,3.3,1.3,5.1,0,.9-.1,1.9-.3,2.8,2.9.8,5.7,2,8.3,3.4.2.1.4.2.6.3.8-2.1,1.2-4.2,1.2-6.5,0-1,0-2-.2-3.1h0Z"/>
  <path class="st3" d="M80.2,23.5c-1.6-3.2-1.6-7,0-10.3.8-1.4,1.9-2.6,3.3-3.5,1.1-.6,2.3-1,3.5-1.2h0c-1.5-.4-3-.6-4.6-.7-2.1,0-4.2.4-6.2,1.2-1.3.6-2.5,1.3-3.6,2.1-.9.6-1.8,1.3-2.7,1.9h0c-.5,1.7-.7,3.5-.7,5.2,0,2.8.6,5.6,1.9,8.1,3.4,0,6.8-.6,10-1.7-.3-.4-.6-.8-.8-1.2Z"/>
  <path class="st3" d="M156.6,25.6v-3.8h15.3v-7.3h-15.3v-4.8l-.7-.3h-.2c0,0-.7-.3-.7-.3l-.5-.2c-.8-.3-1.6-.5-2.4-.6-1.7-.2-3.5,0-5.1.6v14.1c2.3,1.3,4.7,2.1,7.3,2.5.7.1,1.5.2,2.3.2Z"/>
  <path class="st3" d="M241.1,13.2v2.2h0v4.1l-3.7-4.4h0l-4.2-5h-.2c-5.5-3.2-10-2.2-14.6.3l-.6.3v2.9h0v6.6c3.1-.9,6.4-1,9.5-.3v-2.6l2.9,3.5c2.5.9,5.2,2.3,8.7,3.8,3.6,1.6,7.7,2.2,11.6,1.8V10.4c-.5.3-.9.6-1.4.9-3.3,1.7-5.8,2.3-8.2,2Z"/>
  <path class="st3" d="M191.3,21.7l4.4-11,4.4,11h-8.7c8.9,3.5,12.3,3.2,18.7,1l-4.3-9.8h-.1c0,0,.1,0,.1,0l-.2-.5c-.8-.3-1.6-.6-2.4-1l-1-.6c-3.7-2.3-6.5-3-11.5-3h0c-.9,0-1.7,0-2.6.2l-5,11.4c2,0,4,.4,5.8,1.2.8.5,1.7.8,2.5,1.1Z"/>
  <path class="st0" d="M191.2,21.8h.1-.1Z"/>
  <path class="st1" d="M97.3,21.2c-.2.8-.5,1.6-.9,2.3-.8,1.4-1.9,2.6-3.3,3.5-2.9,1.6-6.5,1.6-9.4,0-1-.6-1.8-1.3-2.5-2.2-3.2,1.2-6.6,1.7-10,1.7.2.4.4.8.6,1.1,1.6,2.7,4,4.9,6.8,6.4,6.2,3.1,13.4,3.1,19.6,0,2.8-1.5,5.2-3.7,6.8-6.4.5-.9,1-1.8,1.3-2.7-.2,0-.4-.2-.6-.3-2.6-1.4-5.4-2.6-8.3-3.4Z"/>
  <path class="st1" d="M111.9,26.4c.2.4.4.8.7,1.3,1.6,2.7,4,4.9,6.8,6.4,3,1.6,6.3,2.3,9.7,2.3,2.9,0,5.8-.5,8.5-1.7,2.5-1.1,4.6-2.7,6.3-4.8l-6.2-5.6c-3.1,4-8.6,5.2-13.1,2.8-.8-.4-1.5-1-2.1-1.6-3.4,1-7,1.4-10.5,1Z"/>
  <path class="st1" d="M156.6,25.6c-.8,0-1.5,0-2.3-.2-2.6-.4-5-1.2-7.3-2.5v12.7h27.6v-7.5h-18v-2.5Z"/>
  <path class="st1" d="M191.4,21.8h-.1c-.8-.3-1.7-.7-2.6-1.1-1.8-.8-3.8-1.2-5.8-1.2l-7.1,16.1h9.9l2.7-6.7h14.5l2.7,6.7h10.1l-5.7-12.8c-6.4,2.1-9.8,2.5-18.7-1Z"/>
  <path class="st1" d="M217.9,20.2v15.4h9.5v-15.7c-3.1-.7-6.4-.6-9.5.3Z"/>
  <path class="st1" d="M239,24.6c-3.5-1.5-6.2-2.8-8.7-3.8l12.3,14.8h8v-9.2c-4,.4-8-.2-11.6-1.8Z"/>
  <path class="st2" d="M61,30.6c0-3.8-.7-7.6-2.1-11.2-.3-.7-.6-1.5-1-2.2,0-.1-.1-.2-.2-.3h0c0,0-.2.6-.2.6h0c-1.6,2.8-3.5,5.4-5.7,7.7-4.6,5.2-10.7,10.5-14.7,11.2,0,0,.1,0,.2.1,1.2.6,3.4.1,4.5,0,.8,0,1.5.1,2.2.5.2.1.4.4.5.6,0,0,0,.1,0,.2-2.1-.2-9.7,2-11.3,3-1.4.8-6.1,3.9-10.1,3-.3,0-.6-.2-.9-.3-.6-.2-1.2-.6-1.7-1.1h.2c2.1-.2,8-2.2,8.8-3.6-.3,0-.7,0-1,0-1.4,0-2.8-.2-4.1-.6-3.8-.9-8.6-2.9-11.4-5.7-1.7-1.6-3.2-3.4-4.7-5-2.4-2.6-4.6-4.8-6.7-5.6-4.7,16,4.5,32.8,20.5,37.6s32.8-4.5,37.6-20.5c.8-2.8,1.2-5.7,1.2-8.6"/>
  <path class="st2" d="M14.5,20.9c1.1,1.5,2.1,2.9,2.8,3.9,3.7,5.2,16,22.2,25,3.1,0,0,4.3-8.4,5-9.4,0,0,3.1-6,7.5-5.9-.7-1.1-1.6-2.1-2.5-3-11.6-11.9-30.7-12.1-42.6-.5-1,.9-1.9,2-2.7,3-.3.3-.5.7-.8,1,.5.1,1.1.4,1.5.7,2.1,1.4,4.7,4.4,6.7,7.1ZM37.2,14.1c0-.8.7-1.4,1.6-1.5h1.9c.8,0,1.5.6,1.6,1.4,0,0,0,0,0,0v6.2h-1.6v-2.9h-1.9v2.9h-1.6v-6.2ZM30.9,14.1c0-.8.7-1.4,1.6-1.5h1.9c.8,0,1.5.6,1.6,1.4,0,0,0,0,0,0v6.2h-1.6v-2.9h-1.9v2.9h-1.6v-6.2ZM24.7,14.6v-.6c0-.8.7-1.5,1.6-1.5h1.9c.8,0,1.5.6,1.6,1.5,0,0,0,0,0,0v4.8c-.2.8-.8,1.3-1.6,1.4h-1.9c-.8,0-1.4-.7-1.6-1.4v-4.2ZM18.5,12.6h3.2c.9,0,1.7.6,1.8,1.5,0,0,0,0,0,0v6.2h-1.6v-5.7c0-.3-.2-.6-.5-.6h-1.4v6.2h-1.6v-7.7Z"/>
  <rect class="st2" x="26.2" y="14" width="1.9" height="4.8" rx=".5" ry=".5"/>
  <path class="st2" d="M40.7,14.7c0-.3-.2-.6-.5-.6,0,0,0,0,0,0h-.8c-.3,0-.5.3-.5.6v1.3h1.9v-1.3Z"/>
  <path class="st2" d="M34.4,14.7c0-.3-.2-.6-.5-.6,0,0,0,0,0,0h-.8c-.3,0-.5.3-.5.6v1.3h1.9v-1.3Z"/>
</svg>