<?xml version="1.0" encoding="UTF-8"?>
<svg id="Layer_2" data-name="Layer 2" xmlns="http://www.w3.org/2000/svg" viewBox="0 0 341.08 73.82">
  <defs>
    <style>
      .cls-1 {
        fill: #233D7F;
        fill-rule: evenodd;
        stroke-width: 0px;
      }
    </style>
  </defs>
  <g id="Layer_1-2" data-name="Layer 1">
    <path class="cls-1" d="M338.87,0H2.21C.97,0,0,1.03,0,2.23v69.36c0,1.25,1.02,2.23,2.21,2.23h336.67c1.24,0,2.21-1.03,2.21-2.23V2.27c.04-1.25-.97-2.27-2.21-2.27h0ZM18.01,4.5v14.62c0,1.25,1.02,2.23,2.21,2.23s2.21-1.03,2.21-2.23V4.5h16.78v22.47c0,1.25,1.02,2.23,2.21,2.23s2.21-1.03,2.21-2.23V4.5h16.78v14.62c0,1.25,1.02,2.23,2.21,2.23s2.21-1.03,2.21-2.23V4.5h16.78v31.56c0,1.25,1.02,2.23,2.21,2.23s2.21-1.03,2.21-2.23V4.5h16.78v14.62c0,1.25,1.02,2.23,2.21,2.23s2.21-1.03,2.21-2.23V4.5h16.78v22.47c0,1.25,1.02,2.23,2.21,2.23s2.21-1.03,2.21-2.23V4.5h16.78v14.62c0,1.25,1.02,2.23,2.21,2.23s2.21-1.03,2.21-2.23V4.5h16.78v31.56c0,1.25,1.02,2.23,2.21,2.23s2.21-1.03,2.21-2.23V4.5h16.78v14.62c0,1.25,1.02,2.23,2.21,2.23s2.21-1.03,2.21-2.23V4.5h16.78v22.47c0,1.25,1.02,2.23,2.21,2.23s2.21-1.03,2.21-2.23V4.5h16.78v14.62c0,1.25,1.02,2.23,2.21,2.23s2.21-1.03,2.21-2.23V4.5h16.78v31.56c0,1.25,1.02,2.23,2.21,2.23s2.21-1.03,2.21-2.23V4.5h16.78v14.62c0,1.25,1.02,2.23,2.21,2.23s2.21-1.03,2.21-2.23V4.5h16.78v22.47c0,1.25,1.02,2.23,2.21,2.23s2.21-1.03,2.21-2.23V4.5h16.78v14.62c0,1.25,1.02,2.23,2.21,2.23s2.21-1.03,2.21-2.23V4.5h16.82v55.81H4.46V4.5h13.56ZM4.46,69.36v-4.55h332.21v4.55H4.46Z"/>
  </g>
</svg>